<svg width="196" height="196" viewBox="0 0 196 196" fill="none" xmlns="http://www.w3.org/2000/svg">
<g clip-path="url(#clip0_1561_4757)">
<circle cx="97.7213" cy="98.1139" r="82.7695" transform="rotate(-10.3353 97.7213 98.1139)" fill="#0473E3" fill-opacity="0.15"/>
</g>
<g clip-path="url(#clip1_1561_4757)">
<circle cx="97.7217" cy="98.1137" r="69.906" transform="rotate(-10.3353 97.7217 98.1137)" fill="#F2F2F2"/>
</g>
<g clip-path="url(#clip2_1561_4757)">
<path d="M136.908 81.1506C136.908 81.1506 133.868 85.0232 134.976 86.7661C136.084 88.509 133.954 90.7764 133.722 91.506C133.49 92.2356 133.253 96.8842 133.253 96.8842L133.536 99.6798L132.684 100.105H131.128V105.878C131.128 105.878 134.742 105.377 135.047 105.407C135.352 105.438 146.584 114.13 146.584 114.13L146.739 116.695H153.927V101.062L153.309 100.447C153.309 100.447 153.119 89.5572 151.804 88.2816C150.487 87.0051 142.578 82.3448 142.578 82.3448L136.909 81.1506H136.908Z" fill="#C7C7D2"/>
<path d="M65.4926 114.567L131.127 114.803C131.127 114.803 133.855 111.734 138.724 111.734C143.593 111.734 146.738 116.694 146.738 116.694H148.34L144.37 106.956C144.37 106.956 139.78 104.692 136.689 105.406C133.599 106.121 112.54 109.311 112.54 109.311L82.5034 108.992C82.5034 108.992 78.2766 105.802 72.2982 105.802C65.9188 105.802 65.4917 114.567 65.4917 114.567H65.4926Z" fill="black"/>
<path d="M46.1323 110.984L49.737 114.644L65.6113 114.565L66.7208 109.546L46.1323 110.984Z" fill="#4D494A"/>
<path d="M132.959 105.574H148.271C148.766 105.574 149.238 105.77 149.587 106.118C149.87 106.4 150.236 106.583 150.631 106.633C151.671 106.765 153.793 107.188 154.475 108.463V111.946L146.743 110.676C146.743 110.676 144.806 105.991 138.78 105.991C138.78 105.991 135.906 105.078 133.52 107.153L132.684 107.913L132.958 105.574H132.959Z" fill="#BEC2CB"/>
<path d="M133.691 82.3296C133.691 82.3296 132.684 83.3456 132.684 85.4126V105.574L132.959 106.576L133.253 107.427C133.253 107.427 133.872 106.884 134.315 106.556L134.506 93.146L136.378 87.646C136.378 87.646 135.969 82.6671 138.476 80.1713C138.476 80.1713 135.63 79.534 133.723 79.5635L133.692 82.3287L133.691 82.3296Z" fill="#9795A3"/>
<path d="M152.713 116.694V100.602H153.034L153.224 101.753V115.812L152.713 116.694Z" fill="#4D494A"/>
<path d="M131.127 77.134H43.2253V105.407H131.127V77.134Z" fill="#C7C7D2"/>
<path d="M66.9006 105.574L43.5347 105.46L44.8717 108.278H44.1937V110.808H46.1287V110.985L66.2317 110.804C66.2317 110.804 67.8231 106.617 72.5832 106.617C77.3432 106.617 79.9022 110.247 79.9022 114.645H130.979C130.979 114.645 130.657 106.03 138.232 106.03C138.232 106.03 146.187 106.137 146.563 114.074V116.695H153.738V114.371H147.637C147.637 114.371 147.501 111.989 146.63 109.965C144.799 105.711 141.421 105.128 138.108 105.128C134.795 105.128 130.979 105.688 130.979 105.688L78.2648 105.407" fill="#4D494A"/>
<path d="M136.331 81.0683C136.331 81.0683 142.893 81.4935 149.256 87.1456C149.256 87.1456 151.428 87.6227 152.187 88.8813L151.829 88.1052C151.829 88.1052 147.842 84.6248 144.891 83.0144C144.891 83.0144 142.266 81.4711 141.064 81.0271C139.861 80.5831 137.797 80.0361 137.797 80.0361L136.332 81.0692L136.331 81.0683Z" fill="#9795A3"/>
<path d="M133.722 79.5652C133.722 79.5652 131.677 79.9752 131.677 81.9956V100.105H132.684V85.4134C132.684 85.4134 132.883 83.0143 133.691 82.3304L133.722 79.5652Z" fill="#4D494A"/>
<path d="M152.483 90.0093H151.1L151.878 100.617H154.03L153.801 100.412C153.801 100.412 153.707 94.3169 152.483 90.0093Z" fill="#5B5965"/>
<path d="M153.926 104.085C153.926 104.085 153.768 102.869 152.968 102.52V113.854L153.926 115.388V104.085Z" fill="black"/>
<path d="M131.127 105.788H43.2254C43.1067 105.788 43.0105 105.692 43.0105 105.574V77.1331C43.0105 77.015 43.1067 76.9192 43.2254 76.9192C43.3441 76.9192 43.4403 77.015 43.4403 77.1331V105.36H130.912V77.1331C130.912 77.015 131.008 76.9192 131.127 76.9192C131.246 76.9192 131.342 77.015 131.342 77.1331V105.574C131.342 105.692 131.246 105.788 131.127 105.788Z" fill="#444444"/>
<path d="M43.2253 101.822H42.31C42.1913 101.822 42.0951 101.726 42.0951 101.608V100.457C42.0951 100.339 42.1913 100.243 42.31 100.243H43.2253C43.344 100.243 43.4402 100.339 43.4402 100.457V101.608C43.4402 101.726 43.344 101.822 43.2253 101.822ZM42.524 101.395H43.0104V100.672H42.524V101.395Z" fill="#444444"/>
<path d="M43.2253 87.0972H42.31C42.1913 87.0972 42.0951 87.0014 42.0951 86.8832V85.732C42.0951 85.6139 42.1913 85.5181 42.31 85.5181H43.2253C43.344 85.5181 43.4402 85.6139 43.4402 85.732V86.8832C43.4402 87.0014 43.344 87.0972 43.2253 87.0972ZM42.524 86.6702H43.0104V85.9469H42.524V86.6702Z" fill="#444444"/>
<path d="M44.1947 108.278H42.8748V110.808H44.1947V108.278Z" fill="#8B151B"/>
<path d="M149.265 91.9921C149.265 91.9921 144.032 91.9491 141.909 91.9742C141.214 91.9822 140.657 92.5453 140.657 93.2373V98.6772L148.837 100.105L149.939 99.2233C150.235 98.987 150.407 98.6316 150.413 98.2538C150.432 96.9469 149.264 91.9921 149.264 91.9921H149.265Z" fill="#5B5965"/>
<path d="M79.9655 114.503L79.9646 114.787L131.128 114.947L131.129 114.663L79.9655 114.503Z" fill="#ADADB2"/>
<path d="M154.069 116.837H146.738V116.552H153.782V101.12L153.166 100.507L153.164 100.451C153.161 100.373 152.894 92.6367 151.237 88.2843C150.82 87.8323 143.23 79.7838 133.313 79.7077L133.283 82.386L133.245 82.4263C133.236 82.4371 132.277 83.4889 132.277 85.9444V100.247H131.27V105.83H131.126L43.7604 105.602L45.0992 108.42H44.3376V110.665H46.2753V110.926L49.8386 114.543L49.6345 114.743L45.9893 111.042V110.949H44.0517V108.135H44.6478L43.3081 105.316L130.984 105.544V99.9619H131.991V85.9453C131.991 83.6187 132.808 82.5051 132.999 82.2759L133.031 79.4221H133.172C143.523 79.4221 151.39 88.0265 151.468 88.1134L151.495 88.1572C153.102 92.352 153.42 99.6656 153.448 100.384L154.069 101.002V116.837Z" fill="#ADADB2"/>
<path d="M148.876 100.256L140.514 98.7963V93.2372C140.514 92.471 141.139 91.8408 141.907 91.8318C144.008 91.8068 149.213 91.8497 149.265 91.8497H149.378L149.404 91.9598C149.452 92.163 150.576 96.946 150.557 98.2556C150.55 98.6781 150.358 99.0702 150.03 99.3334L148.877 100.256H148.876ZM140.8 98.5573L148.798 99.9537L149.849 99.1123C150.112 98.9028 150.264 98.5886 150.269 98.252C150.286 97.0838 149.32 92.8684 149.15 92.1344C148.375 92.1281 143.835 92.0941 141.91 92.1174C141.297 92.1245 140.799 92.6267 140.799 93.2381V98.5582L140.8 98.5573Z" fill="black"/>
<path d="M138.606 103.399H135.55C135.103 103.399 134.739 103.037 134.739 102.592V100.344C134.739 99.8992 135.103 99.5366 135.55 99.5366H138.606C139.053 99.5366 139.417 99.8992 139.417 100.344V102.592C139.417 103.037 139.053 103.399 138.606 103.399ZM135.55 99.8213C135.26 99.8213 135.025 100.056 135.025 100.344V102.592C135.025 102.88 135.26 103.115 135.55 103.115H138.606C138.896 103.115 139.131 102.88 139.131 102.592V100.344C139.131 100.056 138.896 99.8213 138.606 99.8213H135.55Z" fill="#ADADB2"/>
<path d="M150.27 107.331C150.27 107.331 152.951 107.32 154.476 109.077V111.947C154.476 111.947 153.435 111.077 152.49 110.904C152.306 110.87 152.167 110.72 152.132 110.538C152.013 109.92 151.615 108.644 150.335 108.38C150.085 108.328 149.923 108.078 149.979 107.829C150.027 107.621 150.113 107.411 150.27 107.331Z" fill="#DF5967"/>
<path d="M154.475 109.077C154.475 109.077 153.348 107.216 150.269 107.331C150.269 107.331 149.912 107.495 149.967 107.942C149.967 107.942 152.692 107.464 154.475 110.199V109.076V109.077Z" fill="#744249"/>
<path d="M154.475 110.72C154.475 110.72 154.022 110.07 153.545 109.748V111.319C153.545 111.319 154.15 111.669 154.475 111.947V110.72Z" fill="#D68A4E"/>
<path d="M154.38 112.09C154.346 112.09 154.314 112.078 154.288 112.057C154.278 112.048 153.264 111.209 152.367 111.043C152.132 111 151.942 110.807 151.895 110.564C151.769 109.905 151.38 108.761 150.21 108.52C150.051 108.487 149.915 108.393 149.826 108.256C149.737 108.118 149.708 107.955 149.744 107.797C149.814 107.49 149.937 107.292 150.11 107.205C150.13 107.194 150.146 107.189 150.178 107.189C150.342 107.189 152.955 107.218 154.488 108.984C154.511 109.01 154.524 109.043 154.524 109.077V111.948C154.524 112.004 154.491 112.054 154.441 112.077C154.422 112.086 154.401 112.091 154.381 112.091L154.38 112.09ZM150.212 107.474C150.133 107.531 150.067 107.667 150.022 107.86C150.003 107.942 150.018 108.028 150.065 108.101C150.111 108.173 150.183 108.222 150.267 108.24C151.65 108.526 152.063 109.922 152.175 110.511C152.2 110.639 152.297 110.742 152.419 110.763C153.125 110.893 153.867 111.384 154.236 111.655V109.129C152.866 107.595 150.538 107.482 150.211 107.474H150.212Z" fill="#3A3A3A"/>
<path d="M151.362 114.513H147.288V114.228H151.198C151.155 113.816 151.138 112.714 151.933 111.439L152.176 111.589C151.251 113.074 151.5 114.329 151.502 114.341L151.538 114.513H151.362Z" fill="black"/>
<path d="M152.05 88.5144C152.05 88.5144 153.763 90.8052 153.55 93.4396L152.601 93.1756L151.558 89.4892L152.05 88.5144Z" fill="#4D494A"/>
<path d="M149.29 99.6395L148.46 99.0657C148.033 98.7703 147.778 98.2851 147.778 97.7686V93.581C147.778 92.974 148.134 92.4128 148.686 92.1532L149.31 91.8586L149.432 92.1165L148.808 92.411C148.356 92.624 148.064 93.0832 148.064 93.581V97.7686C148.064 98.1929 148.273 98.5904 148.623 98.832L149.453 99.4059L149.289 99.6395H149.29Z" fill="black"/>
<path d="M140.181 101.8H143.014C143.328 101.8 143.583 102.054 143.583 102.366V104.413H140.18V101.8H140.181Z" fill="#9795A3"/>
<path d="M143.026 104.084C142.999 104.084 142.972 104.077 142.948 104.061L140.419 102.408C140.352 102.365 140.334 102.277 140.377 102.211C140.421 102.146 140.51 102.127 140.575 102.17L143.105 103.823C143.171 103.866 143.189 103.954 143.146 104.02C143.119 104.061 143.073 104.084 143.026 104.084Z" fill="#BEC2CB"/>
<path d="M72.8332 117.01C75.0241 117.01 76.8002 115.241 76.8002 113.06C76.8002 110.879 75.0241 109.111 72.8332 109.111C70.6422 109.111 68.8661 110.879 68.8661 113.06C68.8661 115.241 70.6422 117.01 72.8332 117.01Z" fill="#BEC2CB"/>
<path d="M72.8341 107.395C69.6916 107.395 67.1434 109.931 67.1434 113.06C67.1434 116.189 69.6916 118.726 72.8341 118.726C75.9766 118.726 78.5247 116.189 78.5247 113.06C78.5247 109.931 75.9766 107.395 72.8341 107.395ZM72.8341 117.01C70.6429 117.01 68.8671 115.242 68.8671 113.06C68.8671 110.879 70.6429 109.111 72.8341 109.111C75.0253 109.111 76.8011 110.879 76.8011 113.06C76.8011 115.242 75.0253 117.01 72.8341 117.01Z" fill="#4D494A"/>
<path d="M72.8341 119.01C69.5387 119.01 66.8575 116.341 66.8575 113.059C66.8575 109.777 69.5387 107.109 72.8341 107.109C76.1294 107.109 78.8116 109.778 78.8116 113.059C78.8116 116.34 76.1303 119.01 72.8341 119.01ZM72.8341 107.679C69.8543 107.679 67.4293 110.093 67.4293 113.06C67.4293 116.028 69.8534 118.441 72.8341 118.441C75.8147 118.441 78.2388 116.028 78.2388 113.06C78.2388 110.093 75.8147 107.679 72.8341 107.679ZM72.8341 117.294C70.4891 117.294 68.5802 115.395 68.5802 113.059C68.5802 110.724 70.4882 108.825 72.8341 108.825C75.1799 108.825 77.0879 110.724 77.0879 113.059C77.0879 115.394 75.1799 117.294 72.8341 117.294ZM72.8341 109.394C70.8038 109.394 69.153 111.039 69.153 113.059C69.153 115.08 70.8047 116.724 72.8341 116.724C74.8634 116.724 76.5151 115.08 76.5151 113.059C76.5151 111.039 74.8634 109.394 72.8341 109.394Z" fill="black"/>
<path d="M72.8332 110.995C73.0164 110.995 73.165 110.847 73.165 110.665C73.165 110.482 73.0164 110.334 72.8332 110.334C72.6499 110.334 72.5014 110.482 72.5014 110.665C72.5014 110.847 72.6499 110.995 72.8332 110.995Z" fill="#5B5965"/>
<path d="M74.8688 112.164C75.0521 112.164 75.2006 112.016 75.2006 111.834C75.2006 111.651 75.0521 111.503 74.8688 111.503C74.6856 111.503 74.537 111.651 74.537 111.834C74.537 112.016 74.6856 112.164 74.8688 112.164Z" fill="#5B5965"/>
<path d="M72.8332 114.303C72.63 114.303 72.4286 114.256 72.2433 114.161C71.9331 114.003 71.7021 113.735 71.5942 113.405C71.3721 112.724 71.747 111.99 72.4313 111.768C73.1164 111.548 73.8528 111.92 74.0749 112.602C74.297 113.283 73.922 114.017 73.2378 114.238C73.1047 114.281 72.968 114.302 72.8323 114.302L72.8332 114.303ZM72.8332 112.275C72.7585 112.275 72.6821 112.286 72.6075 112.311C72.2236 112.435 72.0132 112.847 72.1381 113.229C72.1984 113.414 72.3279 113.565 72.5023 113.653C72.6767 113.742 72.8745 113.757 73.0607 113.697C73.4446 113.573 73.655 113.161 73.53 112.779C73.4293 112.471 73.1416 112.276 72.8332 112.276V112.275Z" fill="#95989E"/>
<path d="M70.7984 112.166C70.9816 112.166 71.1302 112.018 71.1302 111.835C71.1302 111.653 70.9816 111.505 70.7984 111.505C70.6152 111.505 70.4666 111.653 70.4666 111.835C70.4666 112.018 70.6152 112.166 70.7984 112.166Z" fill="#5B5965"/>
<path d="M72.834 115.733C73.0173 115.733 73.1658 115.585 73.1658 115.403C73.1658 115.22 73.0173 115.072 72.834 115.072C72.6508 115.072 72.5023 115.22 72.5023 115.403C72.5023 115.585 72.6508 115.733 72.834 115.733Z" fill="#5B5965"/>
<path d="M70.7984 114.564C70.9816 114.564 71.1302 114.416 71.1302 114.234C71.1302 114.051 70.9816 113.903 70.7984 113.903C70.6152 113.903 70.4666 114.051 70.4666 114.234C70.4666 114.416 70.6152 114.564 70.7984 114.564Z" fill="#5B5965"/>
<path d="M74.8688 114.563C75.0521 114.563 75.2006 114.415 75.2006 114.233C75.2006 114.05 75.0521 113.902 74.8688 113.902C74.6856 113.902 74.537 114.05 74.537 114.233C74.537 114.415 74.6856 114.563 74.8688 114.563Z" fill="#5B5965"/>
<path d="M138.942 118.079C141.133 118.079 142.909 116.311 142.909 114.13C142.909 111.949 141.133 110.18 138.942 110.18C136.751 110.18 134.975 111.949 134.975 114.13C134.975 116.311 136.751 118.079 138.942 118.079Z" fill="#BEC2CB"/>
<path d="M138.943 108.464C135.801 108.464 133.253 111.001 133.253 114.13C133.253 117.259 135.801 119.795 138.943 119.795C142.086 119.795 144.634 117.259 144.634 114.13C144.634 111.001 142.086 108.464 138.943 108.464ZM138.943 118.079C136.752 118.079 134.976 116.311 134.976 114.13C134.976 111.948 136.752 110.18 138.943 110.18C141.135 110.18 142.91 111.948 142.91 114.13C142.91 116.311 141.135 118.079 138.943 118.079Z" fill="#4D494A"/>
<path d="M138.943 120.08C135.648 120.08 132.967 117.411 132.967 114.13C132.967 110.849 135.648 108.179 138.943 108.179C142.239 108.179 144.921 110.848 144.921 114.13C144.921 117.412 142.24 120.08 138.943 120.08ZM138.943 108.749C135.964 108.749 133.539 111.162 133.539 114.13C133.539 117.097 135.963 119.511 138.943 119.511C141.924 119.511 144.348 117.097 144.348 114.13C144.348 111.162 141.924 108.749 138.943 108.749ZM138.943 118.365C136.598 118.365 134.689 116.465 134.689 114.13C134.689 111.794 136.597 109.895 138.943 109.895C141.289 109.895 143.197 111.794 143.197 114.13C143.197 116.465 141.289 118.365 138.943 118.365ZM138.943 110.465C136.913 110.465 135.262 112.109 135.262 114.13C135.262 116.15 136.914 117.795 138.943 117.795C140.973 117.795 142.624 116.15 142.624 114.13C142.624 112.109 140.973 110.465 138.943 110.465Z" fill="black"/>
<path d="M138.942 112.065C139.126 112.065 139.274 111.917 139.274 111.734C139.274 111.552 139.126 111.404 138.942 111.404C138.759 111.404 138.611 111.552 138.611 111.734C138.611 111.917 138.759 112.065 138.942 112.065Z" fill="#5B5965"/>
<path d="M140.978 113.234C141.161 113.234 141.31 113.086 141.31 112.904C141.31 112.721 141.161 112.573 140.978 112.573C140.795 112.573 140.646 112.721 140.646 112.904C140.646 113.086 140.795 113.234 140.978 113.234Z" fill="#5B5965"/>
<path d="M138.944 115.372C138.394 115.372 137.882 115.023 137.703 114.475C137.595 114.145 137.623 113.793 137.781 113.484C137.939 113.176 138.209 112.946 138.54 112.839C138.871 112.732 139.225 112.759 139.535 112.917C139.845 113.074 140.075 113.343 140.183 113.672C140.291 114.002 140.263 114.355 140.105 114.663C139.947 114.972 139.677 115.202 139.346 115.309C139.212 115.352 139.077 115.372 138.943 115.372H138.944ZM138.944 113.345C138.868 113.345 138.791 113.356 138.717 113.381C138.531 113.441 138.38 113.569 138.291 113.743C138.202 113.917 138.186 114.114 138.247 114.299C138.307 114.484 138.436 114.635 138.611 114.723C138.785 114.812 138.984 114.827 139.169 114.767C139.355 114.707 139.506 114.578 139.595 114.405C139.684 114.231 139.7 114.034 139.639 113.849C139.579 113.663 139.45 113.513 139.275 113.424C139.171 113.372 139.058 113.345 138.944 113.345Z" fill="#95989E"/>
<path d="M136.908 113.236C137.091 113.236 137.239 113.088 137.239 112.905C137.239 112.723 137.091 112.575 136.908 112.575C136.724 112.575 136.576 112.723 136.576 112.905C136.576 113.088 136.724 113.236 136.908 113.236Z" fill="#5B5965"/>
<path d="M138.943 116.803C139.127 116.803 139.275 116.655 139.275 116.472C139.275 116.29 139.127 116.142 138.943 116.142C138.76 116.142 138.612 116.29 138.612 116.472C138.612 116.655 138.76 116.803 138.943 116.803Z" fill="#5B5965"/>
<path d="M136.908 115.634C137.091 115.634 137.239 115.486 137.239 115.303C137.239 115.121 137.091 114.973 136.908 114.973C136.724 114.973 136.576 115.121 136.576 115.303C136.576 115.486 136.724 115.634 136.908 115.634Z" fill="#5B5965"/>
<path d="M140.978 115.633C141.161 115.633 141.31 115.485 141.31 115.302C141.31 115.12 141.161 114.972 140.978 114.972C140.795 114.972 140.646 115.12 140.646 115.302C140.646 115.485 140.795 115.633 140.978 115.633Z" fill="#5B5965"/>
<path d="M148.192 101.08L138.843 99.4901C137.248 99.089 136.148 98.3317 135.559 97.2387C134.878 95.9729 135.102 94.623 135.234 94.2488L136.122 91.2043C136.269 90.7872 136.672 90.5115 137.125 90.5115H149.603C150.076 90.5115 150.521 90.686 150.856 91.002L151.656 91.7576L151.459 91.9643L150.659 91.2088C150.381 90.9465 149.996 90.7961 149.603 90.7961H137.125C136.793 90.7961 136.499 90.9949 136.394 91.2912L135.507 94.3357C135.405 94.6221 135.168 95.9085 135.812 97.1035C136.36 98.1231 137.4 98.8321 138.902 99.2108L148.24 100.799L148.192 101.08Z" fill="black"/>
<path d="M128.564 79.4221H45.2404V79.7068H128.564V79.4221Z" fill="white"/>
<path d="M128.564 82.5518H45.2404V82.8364H128.564V82.5518Z" fill="white"/>
<path d="M128.564 85.6812H45.2404V85.9658H128.564V85.6812Z" fill="white"/>
<path d="M128.564 88.8098H45.2404V89.0945H128.564V88.8098Z" fill="white"/>
<path d="M128.564 91.9392H45.2404V92.2239H128.564V91.9392Z" fill="white"/>
<path d="M128.564 95.2317H45.2404V95.5164H128.564V95.2317Z" fill="white"/>
<path d="M128.564 98.4624H45.2404V98.7471H128.564V98.4624Z" fill="white"/>
<path d="M50.2405 114.641C50.2405 114.641 49.8395 110.721 52.9011 108.3C55.9627 105.877 59.9324 106.946 59.9324 106.946C59.9324 106.946 62.8771 107.63 64.135 110.559C65.3928 113.489 64.9891 114.568 64.9891 114.568L50.2405 114.641Z" fill="black"/>
<path d="M128.564 101.724H45.2404V102.008H128.564V101.724Z" fill="white"/>
<path d="M57.8975 117.01C60.0885 117.01 61.8646 115.241 61.8646 113.06C61.8646 110.879 60.0885 109.111 57.8975 109.111C55.7066 109.111 53.9305 110.879 53.9305 113.06C53.9305 115.241 55.7066 117.01 57.8975 117.01Z" fill="#BEC2CB"/>
<path d="M57.8985 107.395C54.756 107.395 52.2078 109.931 52.2078 113.06C52.2078 116.189 54.756 118.726 57.8985 118.726C61.041 118.726 63.5891 116.189 63.5891 113.06C63.5891 109.931 61.041 107.395 57.8985 107.395ZM57.8985 117.01C55.7073 117.01 53.9315 115.242 53.9315 113.06C53.9315 110.879 55.7073 109.111 57.8985 109.111C60.0897 109.111 61.8655 110.879 61.8655 113.06C61.8655 115.242 60.0897 117.01 57.8985 117.01Z" fill="#4D494A"/>
<path d="M57.8985 119.01C54.6031 119.01 51.9219 116.341 51.9219 113.059C51.9219 109.777 54.6031 107.109 57.8985 107.109C61.1938 107.109 63.8759 109.778 63.8759 113.059C63.8759 116.34 61.1947 119.01 57.8985 119.01ZM57.8985 107.679C54.9187 107.679 52.4937 110.093 52.4937 113.06C52.4937 116.028 54.9178 118.441 57.8985 118.441C60.8791 118.441 63.3032 116.028 63.3032 113.06C63.3032 110.093 60.8791 107.679 57.8985 107.679ZM57.8985 117.294C55.5535 117.294 53.6446 115.395 53.6446 113.059C53.6446 110.724 55.5526 108.825 57.8985 108.825C60.2443 108.825 62.1523 110.724 62.1523 113.059C62.1523 115.394 60.2443 117.294 57.8985 117.294ZM57.8985 109.394C55.8682 109.394 54.2174 111.039 54.2174 113.059C54.2174 115.08 55.8691 116.724 57.8985 116.724C59.9278 116.724 61.5795 115.08 61.5795 113.059C61.5795 111.039 59.9278 109.394 57.8985 109.394Z" fill="black"/>
<path d="M57.8976 110.995C58.0808 110.995 58.2294 110.847 58.2294 110.665C58.2294 110.482 58.0808 110.334 57.8976 110.334C57.7143 110.334 57.5658 110.482 57.5658 110.665C57.5658 110.847 57.7143 110.995 57.8976 110.995Z" fill="#5B5965"/>
<path d="M59.9332 112.164C60.1165 112.164 60.265 112.016 60.265 111.834C60.265 111.651 60.1165 111.503 59.9332 111.503C59.75 111.503 59.6014 111.651 59.6014 111.834C59.6014 112.016 59.75 112.164 59.9332 112.164Z" fill="#5B5965"/>
<path d="M57.8967 114.303C57.6934 114.303 57.492 114.256 57.3068 114.161C56.9966 114.003 56.7655 113.735 56.6576 113.405C56.4356 112.724 56.8105 111.99 57.4947 111.768C58.1799 111.548 58.9163 111.92 59.1384 112.602C59.3605 113.283 58.9855 114.017 58.3013 114.238C58.1682 114.281 58.0315 114.302 57.8958 114.302L57.8967 114.303ZM57.8967 112.275C57.822 112.275 57.7456 112.286 57.671 112.311C57.287 112.435 57.0766 112.847 57.2016 113.229C57.2619 113.414 57.3913 113.565 57.5658 113.653C57.7402 113.742 57.938 113.757 58.1241 113.697C58.5081 113.573 58.7185 113.161 58.5935 112.779C58.4928 112.471 58.2051 112.276 57.8967 112.276V112.275Z" fill="#95989E"/>
<path d="M55.8628 112.166C56.046 112.166 56.1946 112.018 56.1946 111.835C56.1946 111.653 56.046 111.505 55.8628 111.505C55.6796 111.505 55.531 111.653 55.531 111.835C55.531 112.018 55.6796 112.166 55.8628 112.166Z" fill="#5B5965"/>
<path d="M57.8984 115.733C58.0817 115.733 58.2302 115.585 58.2302 115.403C58.2302 115.22 58.0817 115.072 57.8984 115.072C57.7152 115.072 57.5667 115.22 57.5667 115.403C57.5667 115.585 57.7152 115.733 57.8984 115.733Z" fill="#5B5965"/>
<path d="M55.8628 114.564C56.046 114.564 56.1946 114.416 56.1946 114.234C56.1946 114.051 56.046 113.903 55.8628 113.903C55.6796 113.903 55.531 114.051 55.531 114.234C55.531 114.416 55.6796 114.564 55.8628 114.564Z" fill="#5B5965"/>
<path d="M59.9332 114.563C60.1165 114.563 60.265 114.415 60.265 114.233C60.265 114.05 60.1165 113.902 59.9332 113.902C59.75 113.902 59.6014 114.05 59.6014 114.233C59.6014 114.415 59.75 114.563 59.9332 114.563Z" fill="#5B5965"/>
<path d="M141.456 98.1975V93.3358C141.456 93.3358 141.333 92.3403 142.714 92.3403H147.087L147.628 99.1669L141.455 98.1966L141.456 98.1975Z" fill="#CED8D7"/>
<path d="M142.107 93.5334V97.3147C142.107 97.5429 142.265 97.7408 142.489 97.7927L147.075 98.6046L143.074 97.2735C142.931 97.2081 142.828 97.0783 142.797 96.9253L142.107 93.5343V93.5334Z" fill="white"/>
<path d="M154.89 94.7151L154.606 94.6775C154.625 94.537 154.642 94.1333 154.497 93.948C154.398 93.82 153.7 93.7788 153.11 93.82L152.984 93.8289L152.574 91.7306L152.855 91.676L153.217 93.5281C153.632 93.5067 154.508 93.4968 154.724 93.7725C154.968 94.084 154.899 94.6507 154.89 94.7142L154.89 94.7151Z" fill="black"/>
<path d="M154.747 94.24C154.747 94.24 153.948 94.24 153.994 94.5927C154.04 94.9454 154.132 95.1056 154.132 95.1056L154.761 94.573L154.747 94.24Z" fill="#CED8D7"/>
<path d="M146.18 110.469L145.799 110.615C145.751 110.633 145.727 110.687 145.745 110.735L146.058 111.548C146.077 111.596 146.131 111.62 146.179 111.601L146.56 111.456C146.608 111.437 146.633 111.383 146.614 111.335L146.301 110.523C146.283 110.475 146.229 110.451 146.18 110.469Z" fill="#D68A4E"/>
<path d="M129.339 106.556H125.898C125.628 106.556 125.409 106.773 125.409 107.042V109.163C125.409 109.432 125.628 109.649 125.898 109.649H129.339C129.608 109.649 129.827 109.432 129.827 109.163V107.042C129.827 106.773 129.608 106.556 129.339 106.556Z" fill="black"/>
<path d="M129.339 110.141H125.898C125.628 110.141 125.409 110.358 125.409 110.627V112.749C125.409 113.017 125.628 113.235 125.898 113.235H129.339C129.608 113.235 129.827 113.017 129.827 112.749V110.627C129.827 110.358 129.608 110.141 129.339 110.141Z" fill="black"/>
<path d="M128.26 111.286H126.978V112.09H128.26V111.286Z" fill="white"/>
</g>
<defs>
<clipPath id="clip0_1561_4757">
<rect width="178.891" height="178.891" fill="white" transform="translate(0.107422 17.6611) rotate(-5.50467)"/>
</clipPath>
<clipPath id="clip1_1561_4757">
<rect width="151.089" height="151.089" fill="white" transform="translate(15.2773 30.1643) rotate(-5.50467)"/>
</clipPath>
<clipPath id="clip2_1561_4757">
<rect width="113" height="43" fill="white" transform="translate(42 77)"/>
</clipPath>
</defs>
</svg>
