<svg width="321" height="322" viewBox="0 0 321 322" fill="none" xmlns="http://www.w3.org/2000/svg">
<path d="M203.775 45.2279C216.414 35.8983 234.209 32.3218 248.133 39.6002C232.458 46.4006 219.696 58.522 212.104 73.8196C209.198 79.7298 206.581 86.6058 200.584 89.3373C196.853 91.0371 192.449 90.7088 188.585 89.3364C184.721 87.9639 181.284 85.6323 177.895 83.3254L176.879 83.2032C182.91 68.7041 191.136 54.5575 203.775 45.2279Z" fill="#F0F0F0"/>
<path d="M248.021 39.9099C235.021 40.3169 222.479 44.8066 212.178 52.7413C209.93 54.4101 207.959 56.4226 206.338 58.7046C204.831 60.9785 203.961 63.6142 203.819 66.3378C203.634 68.8746 203.74 71.4908 202.942 73.9387C202.515 75.1857 201.828 76.3284 200.928 77.2918C200.028 78.2552 198.934 79.0176 197.719 79.529C194.723 80.882 191.419 81.0787 188.181 81.1588C184.587 81.2478 180.852 81.2833 177.582 82.9746C177.186 83.1795 176.891 82.5534 177.287 82.3488C182.975 79.4063 189.621 81.3261 195.599 79.5748C198.389 78.7577 200.948 77.0956 202.068 74.3147C203.048 71.8829 202.941 69.185 203.106 66.6148C203.206 63.9558 203.956 61.3618 205.291 59.0594C206.791 56.7023 208.68 54.6173 210.88 52.8938C215.769 48.9346 221.252 45.7682 227.126 43.5106C233.815 40.8969 240.903 39.4459 248.082 39.2204C248.527 39.2066 248.463 39.8962 248.021 39.9099Z" fill="white"/>
<path d="M215.345 49.9912C214.247 48.0835 213.864 45.848 214.263 43.684C214.663 41.52 215.819 39.5683 217.526 38.1776C217.872 37.8974 218.324 38.4219 217.978 38.7025C216.386 39.9946 215.309 41.8127 214.941 43.8286C214.573 45.8445 214.939 47.9254 215.971 49.6958C216.195 50.0807 215.568 50.374 215.345 49.9912Z" fill="white"/>
<path d="M203.743 65.0394C208.078 66.2503 212.712 65.7839 216.718 63.733C217.115 63.5295 217.41 64.1556 217.014 64.3588C212.84 66.4852 208.018 66.9608 203.509 65.6908C203.079 65.5695 203.315 64.9187 203.743 65.0394Z" fill="white"/>
<path d="M233.781 41.8139C234.052 42.6405 234.524 43.3869 235.154 43.9862C235.785 44.5854 236.555 45.0187 237.395 45.2472C237.826 45.363 237.589 46.0137 237.161 45.8986C236.235 45.6419 235.385 45.1623 234.686 44.5018C233.988 43.8412 233.462 43.0198 233.155 42.1094C233.118 42.026 233.115 41.9319 233.146 41.8464C233.177 41.7608 233.239 41.6902 233.32 41.6487C233.403 41.61 233.498 41.6057 233.584 41.6366C233.671 41.6676 233.741 41.7313 233.781 41.8139Z" fill="white"/>
<path d="M259.172 91.6058C258.901 91.5411 258.63 91.4764 258.354 91.4156C254.703 90.5647 250.99 90.0117 247.249 89.7618C246.961 89.7379 246.667 89.718 246.378 89.7025C237.361 89.1965 228.328 90.3678 219.739 93.1567C216.322 94.2696 212.994 95.6407 209.786 97.258C205.354 99.4919 200.727 102.266 195.957 102.889C195.46 102.959 194.959 102.999 194.457 103.007L176.808 84.4514C176.789 84.3891 176.766 84.3306 176.746 84.2681L176.008 83.5594C176.167 83.4644 176.335 83.3694 176.495 83.2744C176.587 83.2189 176.683 83.1676 176.776 83.1121C176.839 83.0765 176.902 83.041 176.956 83.0052C176.977 82.9932 176.998 82.9815 177.015 82.9735C177.07 82.9378 177.124 82.9103 177.175 82.8786C178.11 82.3446 179.051 81.8163 179.998 81.2936C180.002 81.2896 180.002 81.2896 180.01 81.2897C187.231 77.3256 194.846 73.929 202.735 71.7953C202.973 71.7312 203.214 71.6628 203.46 71.6072C207.021 70.6651 210.653 70.0155 214.321 69.6648C216.33 69.4792 218.346 69.3954 220.364 69.4136C225.576 69.4706 230.747 70.3465 235.686 72.0091C245.533 75.3248 254.209 81.7505 258.826 90.9031C258.944 91.1373 259.058 91.3675 259.172 91.6058Z" fill="#F0F0F0"/>
<path d="M258.897 91.7883C248.271 84.2923 235.552 80.3321 222.546 80.4702C219.746 80.4503 216.96 80.8716 214.291 81.7186C211.717 82.6276 209.434 84.2086 207.679 86.2973C206.004 88.212 204.512 90.3644 202.399 91.8388C201.307 92.5774 200.071 93.077 198.771 93.3047C197.472 93.5324 196.14 93.4832 194.861 93.1601C191.653 92.4381 188.897 90.6076 186.264 88.7239C183.34 86.6324 180.336 84.4137 176.707 83.7974C176.267 83.7227 176.409 83.0453 176.848 83.1198C183.162 84.1921 187.312 89.7236 193.141 91.9216C195.86 92.9473 198.906 93.1602 201.476 91.6136C203.723 90.2612 205.263 88.0429 206.943 86.0896C208.626 84.0269 210.788 82.4072 213.241 81.3719C215.858 80.3919 218.623 79.864 221.418 79.811C227.708 79.5914 233.993 80.3613 240.043 82.0925C246.959 84.03 253.493 87.1354 259.361 91.2744C259.724 91.5307 259.258 92.0429 258.897 91.7883Z" fill="white"/>
<path d="M226.731 80.1791C227.004 77.9956 228.045 75.9801 229.668 74.4926C231.291 73.0051 233.391 72.1425 235.591 72.0588C236.037 72.0434 236.081 72.7342 235.636 72.7496C233.586 72.8238 231.631 73.6275 230.122 75.0157C228.614 76.4039 227.652 78.2852 227.41 80.32C227.356 80.7622 226.679 80.6187 226.731 80.1791Z" fill="white"/>
<path d="M208.401 85.2143C211.133 88.7895 215.114 91.2043 219.549 91.9773C219.988 92.0536 219.847 92.731 219.408 92.6549C214.794 91.8419 210.657 89.3204 207.822 85.5937C207.552 85.2383 208.133 84.8608 208.401 85.2143Z" fill="white"/>
<path d="M246.381 84.7422C246.099 85.5651 246.026 86.445 246.168 87.303C246.311 88.1609 246.665 88.9701 247.198 89.6577C247.472 90.0095 246.891 90.3867 246.618 90.0372C246.033 89.2747 245.644 88.3806 245.484 87.433C245.324 86.4855 245.399 85.5132 245.703 84.6013C245.724 84.513 245.778 84.436 245.854 84.3862C245.93 84.3364 246.022 84.3173 246.112 84.333C246.202 84.3521 246.28 84.4058 246.331 84.4824C246.381 84.559 246.399 84.6524 246.381 84.7422Z" fill="white"/>
<path d="M200.439 59.1075H199.072V21.6686C199.072 18.8231 198.511 16.0054 197.421 13.3764C196.331 10.7474 194.734 8.35871 192.72 6.3466C190.706 4.33448 188.316 2.73838 185.685 1.64943C183.054 0.560481 180.234 1.53405e-06 177.386 0H98.0041C95.1563 -6.13598e-06 92.3364 0.560462 89.7054 1.64941C87.0743 2.73835 84.6837 4.33444 82.67 6.34655C80.6563 8.35866 79.0589 10.7474 77.9691 13.3763C76.8793 16.0053 76.3184 18.823 76.3184 21.6686V227.061C76.3184 232.808 78.6031 238.32 82.67 242.383C86.7368 246.447 92.2526 248.73 98.0041 248.73H177.386C183.137 248.73 188.653 246.447 192.72 242.383C196.787 238.32 199.072 232.808 199.072 227.061V85.7572H200.439V59.1075Z" fill="#3F3D56"/>
<path d="M178.262 5.63747H167.9C168.376 6.80482 168.558 8.07135 168.429 9.32549C168.301 10.5796 167.865 11.7829 167.161 12.8293C166.458 13.8756 165.507 14.733 164.394 15.3259C163.28 15.9187 162.038 16.2289 160.776 16.229H115.299C114.037 16.2289 112.795 15.9188 111.682 15.3259C110.568 14.733 109.618 13.8757 108.914 12.8293C108.21 11.7829 107.775 10.5796 107.646 9.32549C107.517 8.07134 107.699 6.8048 108.176 5.63745H98.4974C94.2023 5.63745 90.0831 7.34232 87.0461 10.377C84.009 13.4117 82.3027 17.5276 82.3027 21.8193V226.911C82.3027 229.036 82.7216 231.14 83.5355 233.103C84.3493 235.066 85.5422 236.85 87.046 238.353C88.5498 239.856 90.3351 241.048 92.2999 241.861C94.2648 242.674 96.3707 243.093 98.4974 243.093H178.262C180.388 243.093 182.494 242.674 184.459 241.861C186.424 241.048 188.209 239.856 189.713 238.353C191.217 236.85 192.41 235.067 193.224 233.103C194.037 231.14 194.456 229.036 194.456 226.911V21.8193C194.456 17.5276 192.75 13.4117 189.713 10.377C186.676 7.34233 182.557 5.63746 178.262 5.63747Z" fill="white"/>
<path d="M139.911 177.209C134.038 177.215 128.22 176.063 122.793 173.819C117.365 171.576 112.434 168.285 108.28 164.135C104.127 159.985 100.833 155.057 98.588 149.634C96.3427 144.21 95.1899 138.398 95.1953 132.528C95.187 124.287 97.4633 116.204 101.772 109.177C106.08 102.149 112.252 96.4515 119.604 92.7152C124.933 90.0062 130.751 88.3902 136.714 87.9625C142.678 87.5348 148.667 88.3041 154.329 90.225C164.355 93.6391 172.844 100.499 178.282 109.582C183.72 118.665 185.755 129.382 184.024 139.824C182.293 150.266 176.909 159.756 168.831 166.602C160.752 173.448 150.504 177.207 139.911 177.209ZM139.911 89.5998C133.128 89.5799 126.438 91.1832 120.401 94.2758C115.125 96.9619 110.461 100.709 106.703 105.282C102.944 109.855 100.173 115.154 98.5617 120.848C96.9507 126.543 96.5351 132.508 97.3411 138.37C98.147 144.232 100.157 149.865 103.245 154.914C106.333 159.963 110.432 164.319 115.286 167.71C120.139 171.101 125.641 173.452 131.447 174.617C137.253 175.782 143.238 175.735 149.024 174.479C154.811 173.223 160.276 170.785 165.075 167.318C167.395 165.646 169.541 163.743 171.48 161.64C177.149 155.511 180.906 147.863 182.292 139.633C183.678 131.402 182.632 122.946 179.281 115.301C175.931 107.656 170.422 101.152 163.43 96.5875C156.437 92.0226 148.264 89.5943 139.911 89.5998Z" fill="#F0F0F0"/>
<path d="M43.0188 92.8757C44.2462 93.0295 45.4249 93.4503 46.4719 94.1085C47.519 94.7667 48.4088 95.6463 49.0789 96.6853C49.7489 97.7244 50.1827 98.8975 50.3499 100.122C50.5171 101.347 50.4135 102.593 50.0464 103.774L64.9034 116.139L59.5849 126.993L38.8495 109.236C36.9059 108.489 35.3043 107.055 34.3481 105.206C33.3919 103.357 33.1476 101.222 33.6615 99.2057C34.1754 97.189 35.4118 95.4307 37.1364 94.2641C38.861 93.0974 40.954 92.6035 43.0188 92.8757Z" fill="#FFB6B6"/>
<path d="M181.777 144.443C181.479 141.243 180.247 135.49 179.202 133.362C175.988 124.959 155.227 118.052 152.439 117.162L151.732 109.306L122.886 106.205L119.227 116.251L108.881 120.129C108.178 120.391 107.542 120.805 107.019 121.341C106.495 121.877 106.097 122.522 105.853 123.23L96.5705 125.911L87.4111 128.557L55.5897 106.152L54.0872 107.134L44.0453 113.681L42.4961 114.691L83.6759 151.814L98.9729 148.228L110.476 145.524L111.458 149.507L108.916 163.501C116.282 170.865 126.033 175.365 136.419 176.194C146.806 177.024 157.148 174.129 165.591 168.028L172.126 162.234C176.681 157.313 180.042 151.412 181.952 144.987L181.777 144.443Z" fill="#E4E4E4"/>
<path d="M146.371 99.7803C157.26 96.1778 163.165 84.4367 159.56 73.5559C155.954 62.6751 144.204 56.7749 133.315 60.3775C122.425 63.98 116.52 75.721 120.126 86.6018C123.731 97.4826 135.481 103.383 146.371 99.7803Z" fill="#FFB6B6"/>
<path d="M123.438 56.4197C125.457 53.5385 128.487 51.5217 131.926 50.7702C135.326 50.0714 138.865 50.72 141.796 52.5791C144.983 51.2964 148.419 50.4454 151.795 50.878C155.17 51.3107 158.479 53.1948 160.041 56.2989C160.37 57.103 160.768 57.8767 161.233 58.611C162.609 60.4456 165.166 60.6836 167.425 60.7717C166.283 61.4372 165.141 62.1027 163.999 62.7681C165.137 63.298 166.275 63.828 167.414 64.3581C165.864 64.949 164.315 65.5399 162.766 66.1309C166.372 69.2978 167.244 74.934 165.878 79.6594C164.586 84.1332 161.622 87.8993 158.313 91.1236C157.668 88.7178 158.378 86.1095 158.851 83.6186C159.35 80.9868 159.43 77.9094 157.586 76.0513C156.342 74.7979 154.517 74.4192 152.796 74.1151C144.117 72.5813 135.357 71.542 126.559 71.0023C125.382 70.8397 124.182 70.9621 123.062 71.3591C120.921 72.3097 120.061 74.9204 119.44 77.2353C119.143 73.172 119.381 69.0874 120.147 65.0858C120.734 62.0232 121.658 58.9579 123.438 56.4197Z" fill="#2F2E41"/>
<path d="M150.433 198.261H125.883C125.03 198.261 124.212 197.922 123.61 197.32C123.007 196.717 122.668 195.9 122.668 195.048C122.668 194.196 123.007 193.379 123.61 192.777C124.212 192.174 125.03 191.836 125.883 191.836H150.433C151.285 191.836 152.103 192.174 152.706 192.777C153.309 193.379 153.648 194.196 153.648 195.048C153.648 195.9 153.309 196.717 152.706 197.32C152.103 197.922 151.285 198.261 150.433 198.261Z" fill="#0473E3"/>
<path d="M69.8758 26.3557H2.34887C1.72661 26.3547 1.13016 26.107 0.6905 25.667C0.250843 25.227 0.00390625 24.6307 0.00390625 24.0089C0.00390625 23.3871 0.250843 22.7908 0.6905 22.3508C1.13016 21.9108 1.72661 21.6631 2.34887 21.6621H69.8758C70.4987 21.6621 71.0961 21.9094 71.5365 22.3495C71.977 22.7896 72.2244 23.3865 72.2244 24.0089C72.2244 24.6313 71.977 25.2282 71.5365 25.6684C71.0961 26.1085 70.4987 26.3557 69.8758 26.3557Z" fill="#0473E3"/>
<path d="M108.863 41.3448H2.34851C1.72565 41.3448 1.12829 41.0976 0.687861 40.6575C0.247429 40.2174 0 39.6205 0 38.9982C0 38.3758 0.247429 37.7789 0.687861 37.3388C1.12829 36.8987 1.72565 36.6515 2.34851 36.6515H108.863C109.486 36.6515 110.083 36.8987 110.524 37.3388C110.964 37.7789 111.212 38.3758 111.212 38.9982C111.212 39.6205 110.964 40.2174 110.524 40.6575C110.083 41.0976 109.486 41.3448 108.863 41.3448Z" fill="#0473E3"/>
<path d="M88.3945 55.4659H2.34851C1.72565 55.4659 1.12829 55.2187 0.687861 54.7786C0.247429 54.3385 0 53.7416 0 53.1192C0 52.4969 0.247429 51.9 0.687861 51.4599C1.12829 51.0198 1.72565 50.7726 2.34851 50.7726H88.3945C89.0174 50.7726 89.6147 51.0198 90.0551 51.4599C90.4956 51.9 90.743 52.4969 90.743 53.1192C90.743 53.7416 90.4956 54.3385 90.0551 54.7786C89.6147 55.2187 89.0174 55.4659 88.3945 55.4659Z" fill="#CACACA"/>
<path d="M50.8692 69.535H2.34851C1.72565 69.535 1.12829 69.2878 0.687861 68.8477C0.247429 68.4076 0 67.8107 0 67.1883C0 66.566 0.247429 65.9691 0.687861 65.529C1.12829 65.0889 1.72565 64.8417 2.34851 64.8417H50.8692C51.4921 64.8417 52.0894 65.0889 52.5299 65.529C52.9703 65.9691 53.2177 66.566 53.2177 67.1883C53.2177 67.8107 52.9703 68.4076 52.5299 68.8477C52.0894 69.2878 51.4921 69.535 50.8692 69.535Z" fill="#CACACA"/>
<path d="M77.6734 83.603H2.34871C1.72649 83.602 1.1301 83.3543 0.690465 82.9144C0.250833 82.4744 0.00390625 81.8781 0.00390625 81.2563C0.00390625 80.6346 0.250833 80.0383 0.690465 79.5983C1.1301 79.1583 1.72649 78.9106 2.34871 78.9097H77.6734C78.2956 78.9106 78.892 79.1583 79.3316 79.5983C79.7712 80.0383 80.0182 80.6346 80.0182 81.2563C80.0182 81.8781 79.7712 82.4744 79.3316 82.9144C78.892 83.3543 78.2956 83.602 77.6734 83.603Z" fill="#CACACA"/>
<path d="M289.959 313.19L283.907 313.19L281.027 289.863L289.96 289.864L289.959 313.19Z" fill="#9F616A"/>
<path d="M292.339 321.56L269.232 321.559V321.267C269.233 318.883 270.18 316.598 271.867 314.912C273.553 313.227 275.841 312.28 278.226 312.28H278.227L282.447 309.081L290.322 312.281L292.34 312.281L292.339 321.56Z" fill="#2F2E41"/>
<path d="M286.432 203.562L283.763 171.041L281.666 158.835L293.407 156.244L297.303 172.955L293.908 204.464C294.593 205.302 295.011 206.326 295.109 207.404C295.207 208.481 294.98 209.564 294.458 210.512C293.936 211.459 293.142 212.23 292.178 212.723C291.214 213.217 290.125 213.411 289.05 213.281C287.975 213.152 286.963 212.704 286.145 211.995C285.326 211.286 284.739 210.349 284.457 209.304C284.176 208.259 284.214 207.154 284.565 206.131C284.917 205.108 285.568 204.213 286.432 203.562Z" fill="#9F616A"/>
<path d="M257.81 313.19L251.758 313.19L248.879 289.863L257.812 289.864L257.81 313.19Z" fill="#9F616A"/>
<path d="M248.125 210.934L245.442 215.571C245.442 215.571 242.494 216.376 243.457 225.979C244.421 235.581 244.462 292.474 249.126 299.475L249.97 305.486L258.777 306.327L258.999 300.993L269.5 226.885C269.5 226.885 275.685 299.636 280.801 301.416L282.649 307.477L290.72 307.48L290.243 300.338L290.764 210.182L248.125 210.934Z" fill="#2F2E41"/>
<path d="M245.174 215.218L244.988 215.17C250.526 194.473 248.929 167.672 245.019 138.893L245.019 138.774L259.154 125.836H271.429L283.598 133.683C291.465 137.613 293.253 145.936 293.27 146.02L293.282 146.079L288.462 162.891L292.093 211.51L292.097 211.567L292.076 211.619C290.901 214.597 287.752 214.173 284.106 213.682C280.466 213.191 267.052 217.676 262.939 217.676C254.901 217.676 245.748 215.365 245.174 215.218Z" fill="#E4E4E4"/>
<path d="M281.05 140.236L286.324 137.944L293.271 146.455L298.903 173.73L279.613 170.81L281.05 140.236Z" fill="#E4E4E4"/>
<path d="M199.942 190.53L224.048 168.519L232.426 159.393L241.661 167.085L230.819 180.391L203.802 196.99C203.558 198.044 203.003 199.001 202.21 199.738C201.417 200.475 200.422 200.958 199.352 201.126C198.282 201.293 197.187 201.137 196.206 200.677C195.226 200.218 194.405 199.476 193.85 198.547C193.295 197.618 193.03 196.544 193.09 195.464C193.151 194.383 193.533 193.346 194.187 192.484C194.842 191.622 195.74 190.975 196.765 190.627C197.791 190.279 198.897 190.245 199.942 190.53Z" fill="#9F616A"/>
<path d="M223.523 168.759L230.2 160.096C230.255 159.971 235.795 147.603 240.596 142.228C245.522 136.715 249.399 139.535 249.438 139.565L249.534 139.638L249.802 159.996L231.315 182.069L223.523 168.759Z" fill="#E4E4E4"/>
<path d="M275.183 113.651C276.178 107.521 272.012 101.746 265.878 100.751C259.744 99.7564 253.964 103.919 252.968 110.049C251.973 116.178 256.139 121.953 262.273 122.948C268.408 123.943 274.187 119.78 275.183 113.651Z" fill="#9F616A"/>
<path d="M253.787 110.18C253.787 110.18 253.697 106.228 253.197 104.479C252.697 102.73 251.697 101.23 252.197 101.23C252.697 101.23 252.947 99.9811 252.947 99.9811C252.947 99.9811 253.447 99.7313 253.697 99.9811C253.947 100.231 254.197 98.2321 254.197 98.2321C254.197 98.2321 254.447 97.4825 254.697 97.9823C254.947 98.482 254.947 98.2321 255.197 97.4825C255.448 96.7329 256.698 96.2332 256.698 96.2332C256.698 96.2332 261.449 96.4831 262.199 95.4836C262.949 94.4842 271.451 95.2338 273.202 96.4831C274.952 97.7323 282.704 102.23 281.453 105.978C280.203 109.726 276.604 118.355 275.702 119.22C274.276 120.588 273.289 121.082 266.54 122.423C265.219 122.686 258.478 118.378 258.478 117.629C258.478 116.879 259.291 114.502 257.985 114.176C256.01 113.682 255.788 116.177 255.288 115.427C254.788 114.678 253.787 110.18 253.787 110.18Z" fill="#2F2E41"/>
<path d="M260.191 321.56L237.084 321.559V321.267C237.084 318.883 238.032 316.598 239.718 314.912C241.405 313.227 243.693 312.28 246.078 312.28H246.078L250.299 309.081L258.174 312.281L260.191 312.281L260.191 321.56Z" fill="#2F2E41"/>
</svg>
