<svg width="196" height="196" viewBox="0 0 196 196" fill="none" xmlns="http://www.w3.org/2000/svg">
<g clip-path="url(#clip0_1548_1979)">
<circle cx="97.7213" cy="98.1139" r="82.7695" transform="rotate(-10.3353 97.7213 98.1139)" fill="#0473E3" fill-opacity="0.15"/>
</g>
<g clip-path="url(#clip1_1548_1979)">
<circle cx="97.7217" cy="98.1137" r="69.906" transform="rotate(-10.3353 97.7217 98.1137)" fill="#0473E3"/>
<g clip-path="url(#clip2_1548_1979)">
<path d="M168 97.5C168 102.207 167.539 106.806 166.657 111.254C166.383 112.649 166.066 114.028 165.709 115.393C165.004 118.095 164.14 120.732 163.13 123.298C162.993 123.65 162.852 124.001 162.706 124.351C162.347 125.223 161.971 126.087 161.577 126.94C161.368 127.397 161.152 127.852 160.93 128.305C160.101 130.013 159.203 131.684 158.239 133.311C157.144 135.165 155.967 136.967 154.709 138.706C152.46 141.826 149.959 144.755 147.24 147.459C134.491 160.156 116.911 168 97.5 168C77.9994 168 60.3461 160.082 47.5843 147.285C44.9536 144.648 42.5296 141.804 40.3428 138.777C37.8209 135.294 35.6102 131.568 33.7519 127.643C33.4451 126.999 33.1492 126.348 32.8641 125.693C32.8271 125.613 32.7945 125.535 32.7597 125.454C32.3223 124.447 31.9111 123.426 31.5216 122.395C31.1734 121.472 30.8427 120.539 30.5337 119.597C30.0768 118.213 29.6612 116.811 29.2913 115.39C28.991 114.246 28.719 113.088 28.4775 111.922C27.5984 107.699 27.0979 103.338 27.0152 98.8752C27.0044 98.4182 27 97.9591 27 97.5C27 95.4394 27.0892 93.4006 27.2611 91.3856C27.322 90.685 27.3917 89.9865 27.4722 89.2924C28.3621 81.6157 30.4858 74.3155 33.6388 67.5941C34.4504 65.8642 35.3295 64.1735 36.2738 62.5242C39.7683 56.4207 44.1485 50.8895 49.2401 46.109C49.9517 45.4388 50.6763 44.786 51.4161 44.1485C63.7731 33.4625 79.8815 27 97.5 27C136.436 27 168 58.564 168 97.5Z" fill="#F2F2F2"/>
<path d="M133.512 77.7095H130.877V96.419H133.512V77.7095Z" fill="#3F3D56"/>
<path d="M133.518 77.4727L133.422 77.7099L132.526 79.9141L130.877 79.2439L128.505 78.2822C113.785 73.5573 95.1803 71.1395 88.0936 61.8801L87.6323 61.6929C84.6668 64.1535 82.6075 64.2974 82.4471 59.5866L81.9857 59.3995C69.8909 61.8863 59.4312 54.7852 49.2402 46.1089C49.9518 45.4388 50.6764 44.786 51.4162 44.1484C65.7435 44.5501 77.9614 47.036 82.7473 56.8645L83.2108 57.0539L88.779 59.3125L89.2447 59.5018C101.613 56.8935 115.509 66.2951 129.419 75.8082L133.518 77.4727Z" fill="#3F3D56"/>
<path d="M154.71 138.706C152.461 141.826 149.96 144.755 147.24 147.459C115.896 148.071 78.1243 147.995 47.5852 147.285C44.9545 144.648 42.5305 141.804 40.3438 138.777C46.6866 138.601 53.4232 138.462 60.4101 138.353C63.1757 138.307 65.9827 138.27 68.8201 138.236C71.6379 138.205 74.4862 138.177 77.3562 138.153H77.3584C103.437 137.942 131.332 138.135 154.71 138.706Z" fill="#F2F5FD"/>
<path d="M165.709 115.393C165.004 118.095 164.14 120.732 163.131 123.298C162.994 123.65 162.852 124.001 162.706 124.351H159.336V115.393H165.709Z" fill="#3F3D56"/>
<path d="M163.131 123.298C162.994 123.65 162.853 124.001 162.707 124.351C162.348 125.224 161.971 126.087 161.577 126.94C161.369 127.397 161.153 127.852 160.931 128.305C160.102 130.013 159.203 131.684 158.24 133.311C124.561 137.236 93.3922 138.176 67.1074 133.311V123.298H163.131Z" fill="#3F3D56"/>
<path d="M161.576 111.391V126.94C161.367 127.397 161.152 127.852 160.93 128.305C151.364 123.634 142.62 124.192 134.434 128.305V94.1796C141.061 90.2177 147.802 89.5656 154.724 94.1796L161.084 110.153L161.576 111.391Z" fill="#F2F5FD"/>
<path d="M138.649 96.2871H150.244V107.882C146.421 109.924 142.555 109.88 138.649 107.882C136.635 104.017 136.635 100.152 138.649 96.2871Z" fill="white"/>
<path d="M158.941 108.014C157.417 109.729 154.623 109.115 151.562 108.014V96.4189H154.725L158.941 108.014Z" fill="white"/>
<path d="M141.813 114.47H139.178V119.477H141.813V114.47Z" fill="#3F3D56"/>
<path d="M153.803 103.797H153.934C155.317 103.797 156.438 104.918 156.438 106.301C156.438 107.683 155.317 108.804 153.934 108.804H153.803V103.797Z" fill="#3F3D56"/>
<path d="M55.7754 123.297H55.9071C57.2897 123.297 58.4105 124.418 58.4105 125.801C58.4105 127.183 57.2897 128.304 55.9072 128.304H55.7754V123.297Z" fill="#3F3D56"/>
<path d="M166.658 111.254C166.383 112.649 166.066 114.028 165.709 115.393C165.004 118.095 164.14 120.732 163.13 123.298C162.993 123.65 162.852 124.001 162.706 124.351C162.347 125.224 161.971 126.087 161.577 126.94C161.368 127.397 161.152 127.852 160.931 128.305H159.732L159.59 124.351L159.553 123.298L159.336 117.164L159.072 109.757L161.085 110.153L166.658 111.254Z" fill="#F2F5FD"/>
<path d="M68.8182 142.929C74.3486 142.929 78.8318 138.446 78.8318 132.916C78.8318 127.385 74.3486 122.902 68.8182 122.902C63.2879 122.902 58.8047 127.385 58.8047 132.916C58.8047 138.446 63.2879 142.929 68.8182 142.929Z" fill="#3F3D56"/>
<path d="M68.8191 138.186C71.7298 138.186 74.0894 135.827 74.0894 132.916C74.0894 130.005 71.7298 127.646 68.8191 127.646C65.9084 127.646 63.5488 130.005 63.5488 132.916C63.5488 135.827 65.9084 138.186 68.8191 138.186Z" fill="#F2F5FD"/>
<path d="M135.224 122.112L135.224 89.4358H129.69C128.592 91.5052 128.035 94.652 127.836 98.5143C127.158 111.714 116.351 122.112 103.133 122.112H55.6426V124.483H129.219C129.375 126.106 129.534 127.735 129.69 129.358L135.224 129.358V124.483L135.224 122.112Z" fill="#3F3D56"/>
<path d="M92.4331 111.173L93.9195 110.081L103.05 122.504L101.563 123.597C94.7063 122.75 91.695 118.582 92.4331 111.173Z" fill="#3F3D56"/>
<path d="M107.647 69.1655L109.333 69.9151L91.0995 123.604L89.4141 122.855C91.6737 108.142 98.6166 81.2247 107.647 69.1655Z" fill="#3F3D56"/>
<path d="M155.383 108.541H152.748V109.595H155.383V108.541Z" fill="#3F3D56"/>
<path d="M131.715 93.0667C131.716 93.047 131.717 93.0295 131.714 93.0112C131.698 92.8647 131.568 92.7619 131.424 92.778L129.725 92.969L70.0633 95.1259L69.5356 95.1839C69.4206 95.1965 69.3276 95.2837 69.3069 95.3994C69.2812 95.5429 69.3762 95.6793 69.5197 95.705L130.44 103.299C130.585 103.314 130.713 103.206 130.728 103.061L131.715 93.0667ZM71.3967 95.5061L129.628 93.5087L131.158 93.3383L130.23 102.726L71.3967 95.5061Z" fill="#3F3D56"/>
<path d="M88.7785 59.3124L87.6318 61.6929L72.0913 93.9096L82.4465 59.5866L83.2103 57.0538L82.7468 56.8645L81.9852 59.3994L71.3014 95.0498L71.1883 95.5677C71.1622 95.6808 71.2144 95.7962 71.3188 95.8527C71.4451 95.9245 71.6061 95.8788 71.6757 95.7505L88.0931 61.88L89.2441 59.5017L88.7785 59.3124Z" fill="#3F3D56"/>
<path d="M38.0499 95.7875L37.2862 88.5786L37.0773 86.592L35.998 76.3912L35.3431 70.192C35.33 70.0593 35.2168 69.957 35.0819 69.957C34.947 69.957 34.8339 70.0571 34.8186 70.1899L34.1071 76.3912L32.8015 87.7931L32.56 89.9016L31.8616 95.9942L30.8889 104.487C30.8867 104.495 30.8867 104.504 30.8867 104.515C30.8846 104.659 31.0021 104.778 31.1479 104.781L34.316 104.811L38.7136 104.852H38.7158C38.7244 104.852 38.7331 104.85 38.7418 104.85C38.8876 104.835 38.9921 104.704 38.9769 104.561L38.0499 95.7875ZM35.4431 104.293L34.1833 104.282L31.4459 104.256L32.238 97.3411V97.3389L33.1084 89.7493L33.3499 87.6386L34.6402 76.3912L35.0711 72.6269L35.4692 76.3912L36.5637 86.7356L36.7726 88.7222L37.5342 95.9311L38.422 104.321L35.4431 104.293Z" fill="#3F3D56"/>
<path d="M77.055 106.197L75.6363 106.972L71.5826 108.106L68.1838 109.059L60.803 111.124L57.4042 112.074C46.8404 110.342 41.5062 113.989 36.4631 117.936L33.0643 118.887L30.5337 119.597C30.0768 118.213 29.6612 116.811 29.2913 115.391C28.991 114.246 28.719 113.088 28.4775 111.922C27.5984 107.699 27.0979 103.338 27.0152 98.8753C27.0044 98.4183 27 97.9592 27 97.5001C27 95.4395 27.0892 93.4006 27.2611 91.3857C27.322 90.6851 27.3917 89.9866 27.4722 89.2925L32.801 87.7933L33.3493 87.6388L36.5632 86.7358L37.0767 86.5922L45.2343 84.2966C51.5059 83.8536 56.2835 86.5773 60.3526 90.8026C60.3526 90.8026 66.1449 89.0727 70.4075 92.1256C71.7566 93.0938 72.9512 94.5408 73.7607 96.6754L74.4591 98.6881L77.055 106.197Z" fill="#0473E3"/>
<path d="M64.3147 116.839C68.3966 116.839 71.7056 113.53 71.7056 109.448C71.7056 105.366 68.3966 102.057 64.3147 102.057C60.2328 102.057 56.9238 105.366 56.9238 109.448C56.9238 113.53 60.2328 116.839 64.3147 116.839Z" fill="#3F3D56"/>
<path d="M64.3138 113.338C66.4621 113.338 68.2037 111.596 68.2037 109.448C68.2037 107.3 66.4621 105.558 64.3138 105.558C62.1654 105.558 60.4238 107.3 60.4238 109.448C60.4238 111.596 62.1654 113.338 64.3138 113.338Z" fill="#F2F5FD"/>
<path d="M36.5841 119.279C36.5841 121.725 35.396 123.892 33.5639 125.237C33.3397 125.402 33.1048 125.554 32.8632 125.693C32.8262 125.613 32.7936 125.535 32.7588 125.454C32.3214 124.447 31.9102 123.426 31.5207 122.395C31.1725 121.472 30.8418 120.539 30.5328 119.597C30.0759 118.213 29.6603 116.811 29.2904 115.39C28.9901 114.246 28.7181 113.088 28.4766 111.922C28.7116 111.898 28.9509 111.887 29.1925 111.887C32.8153 111.887 35.8312 114.494 36.4622 117.936C36.5427 118.371 36.5841 118.82 36.5841 119.279Z" fill="#3F3D56"/>
<path d="M33.0836 119.279C33.0836 120.554 32.47 121.685 31.5213 122.395C31.1732 121.472 30.8424 120.539 30.5335 119.596C30.0765 118.213 29.6609 116.811 29.291 115.39C31.2646 115.438 32.8704 116.953 33.0641 118.887C33.0771 119.015 33.0836 119.146 33.0836 119.279Z" fill="#F2F5FD"/>
<path d="M55.1258 91.0079L32.2569 97.4091L30.3301 90.5251C33.2095 88.2763 38.8749 87.2756 44.9149 86.4426L55.1258 91.0079Z" fill="white"/>
<path d="M29.4566 98.192L27.0152 98.8753C27.0044 98.4183 27 97.9592 27 97.5001C27 95.4395 27.0892 93.4006 27.2611 91.3857L27.5309 91.3096C29.9159 92.8745 30.5188 95.185 29.4566 98.192Z" fill="white"/>
<path d="M34.8621 102.216L33.6953 102.543L34.3158 104.76L35.4826 104.433L34.8621 102.216Z" fill="#3F3D56"/>
<path d="M74.4585 98.6884C72.4516 99.4916 70.1735 98.5158 69.3703 96.5089C68.7565 94.9755 69.1714 93.2218 70.4072 92.126C71.7563 93.0934 72.9526 94.5401 73.7616 96.6753L74.4585 98.6884Z" fill="#3F3D56"/>
<path d="M33.6387 67.5941C34.4503 65.8642 35.3294 64.1735 36.2737 62.5242V76.3913H33.6387V67.5941Z" fill="#3F3D56"/>
<path d="M132.193 81.9255C134.231 81.9255 135.882 80.2738 135.882 78.2363C135.882 76.1988 134.231 74.5471 132.193 74.5471C130.156 74.5471 128.504 76.1988 128.504 78.2363C128.504 80.2738 130.156 81.9255 132.193 81.9255Z" fill="#3F3D56"/>
</g>
</g>
<defs>
<clipPath id="clip0_1548_1979">
<rect width="178.891" height="178.891" fill="white" transform="translate(0.107422 17.6611) rotate(-5.50467)"/>
</clipPath>
<clipPath id="clip1_1548_1979">
<rect width="151.089" height="151.089" fill="white" transform="translate(15.2773 30.1643) rotate(-5.50467)"/>
</clipPath>
<clipPath id="clip2_1548_1979">
<rect width="141" height="141" fill="white" transform="translate(27 27)"/>
</clipPath>
</defs>
</svg>
