<svg width="107" height="111" viewBox="0 0 107 111" fill="none" xmlns="http://www.w3.org/2000/svg">
<path fill-rule="evenodd" clip-rule="evenodd" d="M15.0271 4.09228C16.2513 4.09228 17.2437 3.17619 17.2437 2.04614C17.2437 0.916087 16.2513 0 15.0271 0C13.8029 0 12.8105 0.916087 12.8105 2.04614C12.8105 3.17619 13.8029 4.09228 15.0271 4.09228ZM2.21659 4.09272C3.44078 4.09272 4.43318 3.17663 4.43318 2.04658C4.43318 0.916528 3.44078 0.000441212 2.21659 0.000441212C0.992401 0.000441212 0 0.916528 0 2.04658C0 3.17663 0.992401 4.09272 2.21659 4.09272ZM30.0583 2.04614C30.0583 3.17619 29.0659 4.09228 27.8417 4.09228C26.6175 4.09228 25.6251 3.17619 25.6251 2.04614C25.6251 0.916088 26.6175 0 27.8417 0C29.0659 0 30.0583 0.916088 30.0583 2.04614ZM40.6502 4.09228C41.8744 4.09228 42.8668 3.17619 42.8668 2.04614C42.8668 0.916087 41.8744 0 40.6502 0C39.426 0 38.4336 0.916087 38.4336 2.04614C38.4336 3.17619 39.426 4.09228 40.6502 4.09228ZM55.6812 2.04614C55.6812 3.17619 54.6888 4.09228 53.4646 4.09228C52.2404 4.09228 51.248 3.17619 51.248 2.04614C51.248 0.916087 52.2404 0 53.4646 0C54.6888 0 55.6812 0.916087 55.6812 2.04614ZM66.2752 4.09228C67.4994 4.09228 68.4918 3.17619 68.4918 2.04614C68.4918 0.916087 67.4994 0 66.2752 0C65.051 0 64.0586 0.916087 64.0586 2.04614C64.0586 3.17619 65.051 4.09228 66.2752 4.09228ZM81.3023 2.04614C81.3023 3.17619 80.3099 4.09228 79.0857 4.09228C77.8615 4.09228 76.8691 3.17619 76.8691 2.04614C76.8691 0.916087 77.8615 0 79.0857 0C80.3099 0 81.3023 0.916087 81.3023 2.04614ZM91.8982 4.09228C93.1224 4.09228 94.1148 3.17619 94.1148 2.04614C94.1148 0.916087 93.1224 0 91.8982 0C90.674 0 89.6816 0.916087 89.6816 2.04614C89.6816 3.17619 90.674 4.09228 91.8982 4.09228ZM106.925 2.04614C106.925 3.17619 105.933 4.09228 104.709 4.09228C103.485 4.09228 102.492 3.17619 102.492 2.04614C102.492 0.916087 103.485 0 104.709 0C105.933 0 106.925 0.916087 106.925 2.04614ZM2.21659 15.9188C3.44078 15.9188 4.43318 15.0027 4.43318 13.8726C4.43318 12.7426 3.44078 11.8265 2.21659 11.8265C0.992401 11.8265 0 12.7426 0 13.8726C0 15.0027 0.992401 15.9188 2.21659 15.9188ZM17.2418 13.8727C17.2418 15.0028 16.2494 15.9189 15.0252 15.9189C13.801 15.9189 12.8086 15.0028 12.8086 13.8727C12.8086 12.7427 13.801 11.8266 15.0252 11.8266C16.2494 11.8266 17.2418 12.7427 17.2418 13.8727ZM27.8416 15.9189C29.0658 15.9189 30.0582 15.0028 30.0582 13.8727C30.0582 12.7427 29.0658 11.8266 27.8416 11.8266C26.6174 11.8266 25.625 12.7427 25.625 13.8727C25.625 15.0028 26.6174 15.9189 27.8416 15.9189ZM42.8668 13.8726C42.8668 15.0027 41.8744 15.9188 40.6502 15.9188C39.426 15.9188 38.4336 15.0027 38.4336 13.8726C38.4336 12.7426 39.426 11.8265 40.6502 11.8265C41.8744 11.8265 42.8668 12.7426 42.8668 13.8726ZM53.4627 15.9188C54.6869 15.9188 55.6793 15.0027 55.6793 13.8726C55.6793 12.7426 54.6869 11.8265 53.4627 11.8265C52.2385 11.8265 51.2461 12.7426 51.2461 13.8726C51.2461 15.0027 52.2385 15.9188 53.4627 15.9188ZM68.4918 13.8726C68.4918 15.0027 67.4994 15.9188 66.2752 15.9188C65.051 15.9188 64.0586 15.0027 64.0586 13.8726C64.0586 12.7426 65.051 11.8265 66.2752 11.8265C67.4994 11.8265 68.4918 12.7426 68.4918 13.8726ZM79.0857 15.9189C80.3099 15.9189 81.3023 15.0028 81.3023 13.8727C81.3023 12.7427 80.3099 11.8266 79.0857 11.8266C77.8615 11.8266 76.8691 12.7427 76.8691 13.8727C76.8691 15.0028 77.8615 15.9189 79.0857 15.9189ZM94.1148 13.8727C94.1148 15.0028 93.1224 15.9189 91.8982 15.9189C90.674 15.9189 89.6816 15.0028 89.6816 13.8727C89.6816 12.7427 90.674 11.8266 91.8982 11.8266C93.1224 11.8266 94.1148 12.7427 94.1148 13.8727ZM104.709 15.9188C105.933 15.9188 106.925 15.0027 106.925 13.8726C106.925 12.7426 105.933 11.8265 104.709 11.8265C103.485 11.8265 102.492 12.7426 102.492 13.8726C102.492 15.0027 103.485 15.9188 104.709 15.9188ZM4.43318 25.6986C4.43318 26.8286 3.44078 27.7447 2.21659 27.7447C0.992401 27.7447 0 26.8286 0 25.6986C0 24.5685 0.992401 23.6524 2.21659 23.6524C3.44078 23.6524 4.43318 24.5685 4.43318 25.6986ZM15.0252 27.7448C16.2494 27.7448 17.2418 26.8287 17.2418 25.6987C17.2418 24.5686 16.2494 23.6525 15.0252 23.6525C13.801 23.6525 12.8086 24.5686 12.8086 25.6987C12.8086 26.8287 13.801 27.7448 15.0252 27.7448ZM30.0582 25.6987C30.0582 26.8287 29.0658 27.7448 27.8416 27.7448C26.6174 27.7448 25.625 26.8287 25.625 25.6987C25.625 24.5686 26.6174 23.6525 27.8416 23.6525C29.0658 23.6525 30.0582 24.5686 30.0582 25.6987ZM40.6502 27.7447C41.8744 27.7447 42.8668 26.8286 42.8668 25.6986C42.8668 24.5685 41.8744 23.6524 40.6502 23.6524C39.426 23.6524 38.4336 24.5685 38.4336 25.6986C38.4336 26.8286 39.426 27.7447 40.6502 27.7447ZM55.6793 25.6986C55.6793 26.8286 54.6869 27.7447 53.4627 27.7447C52.2385 27.7447 51.2461 26.8286 51.2461 25.6986C51.2461 24.5685 52.2385 23.6524 53.4627 23.6524C54.6869 23.6524 55.6793 24.5685 55.6793 25.6986ZM66.2752 27.7447C67.4994 27.7447 68.4918 26.8286 68.4918 25.6986C68.4918 24.5685 67.4994 23.6524 66.2752 23.6524C65.051 23.6524 64.0586 24.5685 64.0586 25.6986C64.0586 26.8286 65.051 27.7447 66.2752 27.7447ZM81.3023 25.6987C81.3023 26.8287 80.3099 27.7448 79.0857 27.7448C77.8615 27.7448 76.8691 26.8287 76.8691 25.6987C76.8691 24.5686 77.8615 23.6525 79.0857 23.6525C80.3099 23.6525 81.3023 24.5686 81.3023 25.6987ZM91.8982 27.7448C93.1224 27.7448 94.1148 26.8287 94.1148 25.6987C94.1148 24.5686 93.1224 23.6525 91.8982 23.6525C90.674 23.6525 89.6816 24.5686 89.6816 25.6987C89.6816 26.8287 90.674 27.7448 91.8982 27.7448ZM106.925 25.6986C106.925 26.8286 105.933 27.7447 104.709 27.7447C103.485 27.7447 102.492 26.8286 102.492 25.6986C102.492 24.5685 103.485 23.6524 104.709 23.6524C105.933 23.6524 106.925 24.5685 106.925 25.6986ZM2.21659 39.5712C3.44078 39.5712 4.43318 38.6551 4.43318 37.5251C4.43318 36.395 3.44078 35.4789 2.21659 35.4789C0.992401 35.4789 0 36.395 0 37.5251C0 38.6551 0.992401 39.5712 2.21659 39.5712ZM17.2418 37.5253C17.2418 38.6553 16.2494 39.5714 15.0252 39.5714C13.801 39.5714 12.8086 38.6553 12.8086 37.5253C12.8086 36.3952 13.801 35.4791 15.0252 35.4791C16.2494 35.4791 17.2418 36.3952 17.2418 37.5253ZM27.8416 39.5714C29.0658 39.5714 30.0582 38.6553 30.0582 37.5253C30.0582 36.3952 29.0658 35.4791 27.8416 35.4791C26.6174 35.4791 25.625 36.3952 25.625 37.5253C25.625 38.6553 26.6174 39.5714 27.8416 39.5714ZM42.8668 37.5251C42.8668 38.6551 41.8744 39.5712 40.6502 39.5712C39.426 39.5712 38.4336 38.6551 38.4336 37.5251C38.4336 36.395 39.426 35.4789 40.6502 35.4789C41.8744 35.4789 42.8668 36.395 42.8668 37.5251ZM53.4627 39.5712C54.6869 39.5712 55.6793 38.6551 55.6793 37.5251C55.6793 36.395 54.6869 35.4789 53.4627 35.4789C52.2385 35.4789 51.2461 36.395 51.2461 37.5251C51.2461 38.6551 52.2385 39.5712 53.4627 39.5712ZM68.4918 37.5251C68.4918 38.6551 67.4994 39.5712 66.2752 39.5712C65.051 39.5712 64.0586 38.6551 64.0586 37.5251C64.0586 36.395 65.051 35.4789 66.2752 35.4789C67.4994 35.4789 68.4918 36.395 68.4918 37.5251ZM79.0857 39.5714C80.3099 39.5714 81.3023 38.6553 81.3023 37.5253C81.3023 36.3952 80.3099 35.4791 79.0857 35.4791C77.8615 35.4791 76.8691 36.3952 76.8691 37.5253C76.8691 38.6553 77.8615 39.5714 79.0857 39.5714ZM94.1148 37.5253C94.1148 38.6553 93.1224 39.5714 91.8982 39.5714C90.674 39.5714 89.6816 38.6553 89.6816 37.5253C89.6816 36.3952 90.674 35.4791 91.8982 35.4791C93.1224 35.4791 94.1148 36.3952 94.1148 37.5253ZM104.709 39.5712C105.933 39.5712 106.925 38.6551 106.925 37.5251C106.925 36.395 105.933 35.4789 104.709 35.4789C103.485 35.4789 102.492 36.395 102.492 37.5251C102.492 38.6551 103.485 39.5712 104.709 39.5712ZM4.43318 49.3516C4.43318 50.4816 3.44078 51.3977 2.21659 51.3977C0.992401 51.3977 0 50.4816 0 49.3516C0 48.2215 0.992401 47.3054 2.21659 47.3054C3.44078 47.3054 4.43318 48.2215 4.43318 49.3516ZM15.0252 51.398C16.2494 51.398 17.2418 50.4819 17.2418 49.3519C17.2418 48.2218 16.2494 47.3057 15.0252 47.3057C13.801 47.3057 12.8086 48.2218 12.8086 49.3519C12.8086 50.4819 13.801 51.398 15.0252 51.398ZM30.0582 49.3519C30.0582 50.4819 29.0658 51.398 27.8416 51.398C26.6174 51.398 25.625 50.4819 25.625 49.3519C25.625 48.2218 26.6174 47.3057 27.8416 47.3057C29.0658 47.3057 30.0582 48.2218 30.0582 49.3519ZM40.6502 51.3977C41.8744 51.3977 42.8668 50.4816 42.8668 49.3516C42.8668 48.2215 41.8744 47.3054 40.6502 47.3054C39.426 47.3054 38.4336 48.2215 38.4336 49.3516C38.4336 50.4816 39.426 51.3977 40.6502 51.3977ZM55.6793 49.3516C55.6793 50.4816 54.6869 51.3977 53.4627 51.3977C52.2385 51.3977 51.2461 50.4816 51.2461 49.3516C51.2461 48.2215 52.2385 47.3054 53.4627 47.3054C54.6869 47.3054 55.6793 48.2215 55.6793 49.3516ZM66.2752 51.3977C67.4994 51.3977 68.4918 50.4816 68.4918 49.3516C68.4918 48.2215 67.4994 47.3054 66.2752 47.3054C65.051 47.3054 64.0586 48.2215 64.0586 49.3516C64.0586 50.4816 65.051 51.3977 66.2752 51.3977ZM81.3023 49.3519C81.3023 50.4819 80.3099 51.398 79.0857 51.398C77.8615 51.398 76.8691 50.4819 76.8691 49.3519C76.8691 48.2218 77.8615 47.3057 79.0857 47.3057C80.3099 47.3057 81.3023 48.2218 81.3023 49.3519ZM91.8982 51.398C93.1224 51.398 94.1148 50.4819 94.1148 49.3519C94.1148 48.2218 93.1224 47.3057 91.8982 47.3057C90.674 47.3057 89.6816 48.2218 89.6816 49.3519C89.6816 50.4819 90.674 51.398 91.8982 51.398ZM106.925 49.3516C106.925 50.4816 105.933 51.3977 104.709 51.3977C103.485 51.3977 102.492 50.4816 102.492 49.3516C102.492 48.2215 103.485 47.3054 104.709 47.3054C105.933 47.3054 106.925 48.2215 106.925 49.3516ZM2.21659 63.2242C3.44078 63.2242 4.43318 62.3081 4.43318 61.1781C4.43318 60.048 3.44078 59.1319 2.21659 59.1319C0.992401 59.1319 0 60.048 0 61.1781C0 62.3081 0.992401 63.2242 2.21659 63.2242ZM17.2418 61.1778C17.2418 62.3079 16.2494 63.2239 15.0252 63.2239C13.801 63.2239 12.8086 62.3079 12.8086 61.1778C12.8086 60.0478 13.801 59.1317 15.0252 59.1317C16.2494 59.1317 17.2418 60.0478 17.2418 61.1778ZM27.8416 63.2239C29.0658 63.2239 30.0582 62.3079 30.0582 61.1778C30.0582 60.0478 29.0658 59.1317 27.8416 59.1317C26.6174 59.1317 25.625 60.0478 25.625 61.1778C25.625 62.3079 26.6174 63.2239 27.8416 63.2239ZM42.8668 61.1781C42.8668 62.3081 41.8744 63.2242 40.6502 63.2242C39.426 63.2242 38.4336 62.3081 38.4336 61.1781C38.4336 60.048 39.426 59.1319 40.6502 59.1319C41.8744 59.1319 42.8668 60.048 42.8668 61.1781ZM53.4627 63.2242C54.6869 63.2242 55.6793 62.3081 55.6793 61.1781C55.6793 60.048 54.6869 59.1319 53.4627 59.1319C52.2385 59.1319 51.2461 60.048 51.2461 61.1781C51.2461 62.3081 52.2385 63.2242 53.4627 63.2242ZM68.4918 61.1781C68.4918 62.3081 67.4994 63.2242 66.2752 63.2242C65.051 63.2242 64.0586 62.3081 64.0586 61.1781C64.0586 60.048 65.051 59.1319 66.2752 59.1319C67.4994 59.1319 68.4918 60.048 68.4918 61.1781ZM79.0857 63.2239C80.3099 63.2239 81.3023 62.3079 81.3023 61.1778C81.3023 60.0478 80.3099 59.1317 79.0857 59.1317C77.8615 59.1317 76.8691 60.0478 76.8691 61.1778C76.8691 62.3079 77.8615 63.2239 79.0857 63.2239ZM94.1148 61.1778C94.1148 62.3079 93.1224 63.2239 91.8982 63.2239C90.674 63.2239 89.6816 62.3079 89.6816 61.1778C89.6816 60.0478 90.674 59.1317 91.8982 59.1317C93.1224 59.1317 94.1148 60.0478 94.1148 61.1778ZM104.709 63.2242C105.933 63.2242 106.925 62.3081 106.925 61.1781C106.925 60.048 105.933 59.1319 104.709 59.1319C103.485 59.1319 102.492 60.048 102.492 61.1781C102.492 62.3081 103.485 63.2242 104.709 63.2242ZM4.43318 73.0045C4.43318 74.1346 3.44078 75.0507 2.21659 75.0507C0.992401 75.0507 0 74.1346 0 73.0045C0 71.8745 0.992401 70.9584 2.21659 70.9584C3.44078 70.9584 4.43318 71.8745 4.43318 73.0045ZM15.0252 75.0506C16.2494 75.0506 17.2418 74.1345 17.2418 73.0044C17.2418 71.8744 16.2494 70.9583 15.0252 70.9583C13.801 70.9583 12.8086 71.8744 12.8086 73.0044C12.8086 74.1345 13.801 75.0506 15.0252 75.0506ZM30.0582 73.0044C30.0582 74.1345 29.0658 75.0506 27.8416 75.0506C26.6174 75.0506 25.625 74.1345 25.625 73.0044C25.625 71.8744 26.6174 70.9583 27.8416 70.9583C29.0658 70.9583 30.0582 71.8744 30.0582 73.0044ZM40.6502 75.0507C41.8744 75.0507 42.8668 74.1346 42.8668 73.0045C42.8668 71.8745 41.8744 70.9584 40.6502 70.9584C39.426 70.9584 38.4336 71.8745 38.4336 73.0045C38.4336 74.1346 39.426 75.0507 40.6502 75.0507ZM55.6793 73.0045C55.6793 74.1346 54.6869 75.0507 53.4627 75.0507C52.2385 75.0507 51.2461 74.1346 51.2461 73.0045C51.2461 71.8745 52.2385 70.9584 53.4627 70.9584C54.6869 70.9584 55.6793 71.8745 55.6793 73.0045ZM66.2752 75.0507C67.4994 75.0507 68.4918 74.1346 68.4918 73.0045C68.4918 71.8745 67.4994 70.9584 66.2752 70.9584C65.051 70.9584 64.0586 71.8745 64.0586 73.0045C64.0586 74.1346 65.051 75.0507 66.2752 75.0507ZM81.3023 73.0044C81.3023 74.1345 80.3099 75.0506 79.0857 75.0506C77.8615 75.0506 76.8691 74.1345 76.8691 73.0044C76.8691 71.8744 77.8615 70.9583 79.0857 70.9583C80.3099 70.9583 81.3023 71.8744 81.3023 73.0044ZM91.8982 75.0506C93.1224 75.0506 94.1148 74.1345 94.1148 73.0044C94.1148 71.8744 93.1224 70.9583 91.8982 70.9583C90.674 70.9583 89.6816 71.8744 89.6816 73.0044C89.6816 74.1345 90.674 75.0506 91.8982 75.0506ZM106.925 73.0045C106.925 74.1346 105.933 75.0507 104.709 75.0507C103.485 75.0507 102.492 74.1346 102.492 73.0045C102.492 71.8745 103.485 70.9584 104.709 70.9584C105.933 70.9584 106.925 71.8745 106.925 73.0045ZM2.21659 86.8772C3.44078 86.8772 4.43318 85.9611 4.43318 84.831C4.43318 83.701 3.44078 82.7849 2.21659 82.7849C0.992401 82.7849 0 83.701 0 84.831C0 85.9611 0.992401 86.8772 2.21659 86.8772ZM17.2418 84.831C17.2418 85.9611 16.2494 86.8772 15.0252 86.8772C13.801 86.8772 12.8086 85.9611 12.8086 84.831C12.8086 83.701 13.801 82.7849 15.0252 82.7849C16.2494 82.7849 17.2418 83.701 17.2418 84.831ZM27.8416 86.8772C29.0658 86.8772 30.0582 85.9611 30.0582 84.831C30.0582 83.701 29.0658 82.7849 27.8416 82.7849C26.6174 82.7849 25.625 83.701 25.625 84.831C25.625 85.9611 26.6174 86.8772 27.8416 86.8772ZM42.8668 84.831C42.8668 85.9611 41.8744 86.8772 40.6502 86.8772C39.426 86.8772 38.4336 85.9611 38.4336 84.831C38.4336 83.701 39.426 82.7849 40.6502 82.7849C41.8744 82.7849 42.8668 83.701 42.8668 84.831ZM53.4627 86.8772C54.6869 86.8772 55.6793 85.9611 55.6793 84.831C55.6793 83.701 54.6869 82.7849 53.4627 82.7849C52.2385 82.7849 51.2461 83.701 51.2461 84.831C51.2461 85.9611 52.2385 86.8772 53.4627 86.8772ZM68.4918 84.831C68.4918 85.9611 67.4994 86.8772 66.2752 86.8772C65.051 86.8772 64.0586 85.9611 64.0586 84.831C64.0586 83.701 65.051 82.7849 66.2752 82.7849C67.4994 82.7849 68.4918 83.701 68.4918 84.831ZM79.0857 86.8772C80.3099 86.8772 81.3023 85.9611 81.3023 84.831C81.3023 83.701 80.3099 82.7849 79.0857 82.7849C77.8615 82.7849 76.8691 83.701 76.8691 84.831C76.8691 85.9611 77.8615 86.8772 79.0857 86.8772ZM94.1148 84.831C94.1148 85.9611 93.1224 86.8772 91.8982 86.8772C90.674 86.8772 89.6816 85.9611 89.6816 84.831C89.6816 83.701 90.674 82.7849 91.8982 82.7849C93.1224 82.7849 94.1148 83.701 94.1148 84.831ZM104.709 86.8772C105.933 86.8772 106.925 85.9611 106.925 84.831C106.925 83.701 105.933 82.7849 104.709 82.7849C103.485 82.7849 102.492 83.701 102.492 84.831C102.492 85.9611 103.485 86.8772 104.709 86.8772ZM4.43318 96.6575C4.43318 97.7876 3.44078 98.7037 2.21659 98.7037C0.992401 98.7037 0 97.7876 0 96.6575C0 95.5275 0.992401 94.6114 2.21659 94.6114C3.44078 94.6114 4.43318 95.5275 4.43318 96.6575ZM15.0252 98.7038C16.2494 98.7038 17.2418 97.7877 17.2418 96.6576C17.2418 95.5276 16.2494 94.6115 15.0252 94.6115C13.801 94.6115 12.8086 95.5276 12.8086 96.6576C12.8086 97.7877 13.801 98.7038 15.0252 98.7038ZM30.0582 96.6576C30.0582 97.7877 29.0658 98.7038 27.8416 98.7038C26.6174 98.7038 25.625 97.7877 25.625 96.6576C25.625 95.5276 26.6174 94.6115 27.8416 94.6115C29.0658 94.6115 30.0582 95.5276 30.0582 96.6576ZM40.6502 98.7037C41.8744 98.7037 42.8668 97.7876 42.8668 96.6575C42.8668 95.5275 41.8744 94.6114 40.6502 94.6114C39.426 94.6114 38.4336 95.5275 38.4336 96.6575C38.4336 97.7876 39.426 98.7037 40.6502 98.7037ZM55.6793 96.6575C55.6793 97.7876 54.6869 98.7037 53.4627 98.7037C52.2385 98.7037 51.2461 97.7876 51.2461 96.6575C51.2461 95.5275 52.2385 94.6114 53.4627 94.6114C54.6869 94.6114 55.6793 95.5275 55.6793 96.6575ZM66.2752 98.7037C67.4994 98.7037 68.4918 97.7876 68.4918 96.6575C68.4918 95.5275 67.4994 94.6114 66.2752 94.6114C65.051 94.6114 64.0586 95.5275 64.0586 96.6575C64.0586 97.7876 65.051 98.7037 66.2752 98.7037ZM81.3023 96.6576C81.3023 97.7877 80.3099 98.7038 79.0857 98.7038C77.8615 98.7038 76.8691 97.7877 76.8691 96.6576C76.8691 95.5276 77.8615 94.6115 79.0857 94.6115C80.3099 94.6115 81.3023 95.5276 81.3023 96.6576ZM91.8982 98.7038C93.1224 98.7038 94.1148 97.7877 94.1148 96.6576C94.1148 95.5276 93.1224 94.6115 91.8982 94.6115C90.674 94.6115 89.6816 95.5276 89.6816 96.6576C89.6816 97.7877 90.674 98.7038 91.8982 98.7038ZM106.925 96.6575C106.925 97.7876 105.933 98.7037 104.709 98.7037C103.485 98.7037 102.492 97.7876 102.492 96.6575C102.492 95.5275 103.485 94.6114 104.709 94.6114C105.933 94.6114 106.925 95.5275 106.925 96.6575ZM2.21659 110.53C3.44078 110.53 4.43318 109.614 4.43318 108.483C4.43318 107.353 3.44078 106.437 2.21659 106.437C0.992401 106.437 0 107.353 0 108.483C0 109.614 0.992401 110.53 2.21659 110.53ZM17.2418 108.484C17.2418 109.614 16.2494 110.53 15.0252 110.53C13.801 110.53 12.8086 109.614 12.8086 108.484C12.8086 107.354 13.801 106.437 15.0252 106.437C16.2494 106.437 17.2418 107.354 17.2418 108.484ZM27.8416 110.53C29.0658 110.53 30.0582 109.614 30.0582 108.484C30.0582 107.354 29.0658 106.437 27.8416 106.437C26.6174 106.437 25.625 107.354 25.625 108.484C25.625 109.614 26.6174 110.53 27.8416 110.53ZM42.8668 108.483C42.8668 109.614 41.8744 110.53 40.6502 110.53C39.426 110.53 38.4336 109.614 38.4336 108.483C38.4336 107.353 39.426 106.437 40.6502 106.437C41.8744 106.437 42.8668 107.353 42.8668 108.483ZM53.4627 110.53C54.6869 110.53 55.6793 109.614 55.6793 108.483C55.6793 107.353 54.6869 106.437 53.4627 106.437C52.2385 106.437 51.2461 107.353 51.2461 108.483C51.2461 109.614 52.2385 110.53 53.4627 110.53ZM68.4918 108.483C68.4918 109.614 67.4994 110.53 66.2752 110.53C65.051 110.53 64.0586 109.614 64.0586 108.483C64.0586 107.353 65.051 106.437 66.2752 106.437C67.4994 106.437 68.4918 107.353 68.4918 108.483ZM79.0857 110.53C80.3099 110.53 81.3023 109.614 81.3023 108.484C81.3023 107.354 80.3099 106.437 79.0857 106.437C77.8615 106.437 76.8691 107.354 76.8691 108.484C76.8691 109.614 77.8615 110.53 79.0857 110.53ZM94.1148 108.484C94.1148 109.614 93.1224 110.53 91.8982 110.53C90.674 110.53 89.6816 109.614 89.6816 108.484C89.6816 107.354 90.674 106.437 91.8982 106.437C93.1224 106.437 94.1148 107.354 94.1148 108.484ZM104.709 110.53C105.933 110.53 106.925 109.614 106.925 108.483C106.925 107.353 105.933 106.437 104.709 106.437C103.485 106.437 102.492 107.353 102.492 108.483C102.492 109.614 103.485 110.53 104.709 110.53Z" fill="#EAF0FF"/>
</svg>
