<svg width="24" height="24" viewBox="0 0 24 24" fill="none" xmlns="http://www.w3.org/2000/svg">
<path fill-rule="evenodd" clip-rule="evenodd" d="M16.1009 13.359L16.5569 12.906C17.1869 12.28 18.1679 12.151 18.9739 12.589L20.8839 13.628C22.1109 14.295 22.3819 15.93 21.4229 16.883L20.0029 18.295C19.6409 18.655 19.1929 18.917 18.6769 18.965C17.4849 19.076 15.0319 19.016 12.1379 17.322L16.1009 13.359ZM10.1909 7.48298L10.4779 7.19698C11.1849 6.49498 11.2519 5.36698 10.6349 4.54298L9.37486 2.85998C8.61086 1.83998 7.13586 1.70498 6.26086 2.57498L4.69086 4.13498C4.25786 4.56698 3.96786 5.12498 4.00286 5.74498C4.06786 6.88498 4.45586 8.96498 6.15186 11.521L10.1909 7.48298Z" fill="#0473E3"/>
<path opacity="0.6" d="M12.0643 11.4969C9.11834 8.56793 10.1843 7.48893 10.1913 7.48193L6.15234 11.5219C6.81934 12.5259 7.68734 13.6029 8.81634 14.7259C9.95634 15.8599 11.0763 16.7009 12.1383 17.3219L16.1013 13.3599C16.1013 13.3599 15.0193 14.4359 12.0643 11.4979V11.4969Z" fill="#0473E3"/>
</svg>
