<svg width="10" height="19" viewBox="0 0 10 19" fill="none" xmlns="http://www.w3.org/2000/svg">
<path d="M0.988992 0.999563C0.858158 1.13351 0.784912 1.31332 0.784912 1.50056C0.784912 1.6878 0.858158 1.86762 0.988992 2.00156L8.29849 9.50006L0.988992 16.9971C0.858158 17.131 0.784912 17.3108 0.784912 17.4981C0.784912 17.6853 0.858158 17.8651 0.988992 17.9991C1.05259 18.0644 1.12862 18.1163 1.21261 18.1517C1.29659 18.1872 1.38683 18.2054 1.47799 18.2054C1.56915 18.2054 1.65939 18.1872 1.74338 18.1517C1.82736 18.1163 1.9034 18.0644 1.96699 17.9991L9.73999 10.0236C9.87651 9.8835 9.95292 9.69565 9.95292 9.50006C9.95292 9.30447 9.87651 9.11662 9.73999 8.97656L1.96699 1.00106C1.9034 0.935748 1.82736 0.883834 1.74338 0.848387C1.65939 0.81294 1.56915 0.794678 1.47799 0.794678C1.38683 0.794678 1.29659 0.81294 1.21261 0.848387C1.12862 0.883834 1.05259 0.935748 0.988992 1.00106V0.999563Z" fill="black"/>
</svg>
