<svg width="47" height="48" viewBox="0 0 47 48" fill="none" xmlns="http://www.w3.org/2000/svg">
<circle opacity="0.2" cx="23.5608" cy="24.5014" r="14.5549" fill="#0473E3" stroke="#0473E3"/>
<path opacity="0.4" d="M16.4422 5.07678C11.877 6.74979 8.04699 9.97725 5.62429 14.1927C3.20158 18.4081 2.34101 23.3422 3.19361 28.1289C4.04622 32.9156 6.55753 37.2491 10.2868 40.3688C14.016 43.4884 18.7249 45.195 23.5869 45.1888C28.449 45.1826 33.1535 43.4642 36.8748 40.3351C40.5962 37.206 43.0965 32.8662 43.9369 28.0773C44.7774 23.2885 43.9043 18.3566 41.471 14.1473C39.0376 9.93798 35.1994 6.72024 30.63 5.0588" stroke="#0473E3" stroke-width="3" stroke-linecap="round" stroke-linejoin="round"/>
<path d="M30.5891 5.00408C33.7852 6.16988 36.6445 8.10592 38.9137 10.6407C41.1828 13.1755 42.7919 16.2308 43.5982 19.536C44.4045 22.8411 44.3833 26.2942 43.5364 29.5892C42.6895 32.8842 41.043 35.9195 38.7429 38.4262C36.4427 40.9329 33.5598 42.8336 30.3496 43.96C27.1394 45.0865 23.7009 45.4038 20.3388 44.8839C16.9766 44.3641 13.7946 43.0231 11.0745 40.9797C8.35439 38.9363 6.18022 36.2536 4.74456 33.1692" stroke="#0473E3" stroke-width="3" stroke-linecap="round" stroke-linejoin="round"/>
<path opacity="0.3" fill-rule="evenodd" clip-rule="evenodd" d="M23.366 28.2159C26.6963 28.2159 29.3961 25.5161 29.3961 22.1858C29.3961 18.8555 26.6963 16.1558 23.366 16.1558C20.0357 16.1558 17.3359 18.8555 17.3359 22.1858C17.3359 25.5161 20.0357 28.2159 23.366 28.2159Z" fill="#0473E3"/>
<path opacity="0.3" fill-rule="evenodd" clip-rule="evenodd" d="M19.248 22.1859L22.2856 29.9967L23.3468 29.584L24.401 30.0004L27.4882 22.1859H19.248ZM21.4514 23.6934H25.2714L23.3463 28.5661L21.4514 23.6934Z" fill="#0473E3"/>
<path opacity="0.3" d="M21.8574 31.9847H24.8725C24.8725 32.8173 24.1975 33.4923 23.3649 33.4923C22.5324 33.4923 21.8574 32.8173 21.8574 31.9847Z" fill="#0473E3"/>
<path fill-rule="evenodd" clip-rule="evenodd" d="M20.3516 28.2158C20.3516 27.7995 20.689 27.462 21.1053 27.462H25.6279C26.0442 27.462 26.3816 27.7995 26.3816 28.2158C26.3816 28.6321 26.0442 28.9696 25.6279 28.9696H21.1053C20.689 28.9696 20.3516 28.6321 20.3516 28.2158ZM20.3516 29.7234C20.3516 29.3071 20.689 28.9696 21.1053 28.9696H25.6279C26.0442 28.9696 26.3816 29.3071 26.3816 29.7234C26.3816 30.1397 26.0442 30.4772 25.6279 30.4772H21.1053C20.689 30.4772 20.3516 30.1397 20.3516 29.7234ZM21.1053 30.4772C20.689 30.4772 20.3516 30.8146 20.3516 31.2309C20.3516 31.6472 20.689 31.9847 21.1053 31.9847H25.6279C26.0442 31.9847 26.3816 31.6472 26.3816 31.2309C26.3816 30.8146 26.0442 30.4772 25.6279 30.4772H21.1053Z" fill="#0473E3"/>
<path opacity="0.4" d="M23.8023 5.13796L23.5616 5.00569L23.3208 5.13796L21.9388 5.89724L22.2083 4.2551L22.2494 4.00483L22.0717 3.82385L20.9101 2.64059L22.4953 2.39988L22.7587 2.35989L22.8724 2.11907L23.5616 0.659786L24.2507 2.11907L24.3645 2.35989L24.6278 2.39988L26.213 2.64059L25.0514 3.82385L24.8737 4.00483L24.9148 4.2551L25.1843 5.89724L23.8023 5.13796ZM23.6655 0.439828C23.6654 0.439864 23.6654 0.439899 23.6654 0.439935L23.6655 0.439828ZM25.2177 6.10077C25.2177 6.10072 25.2177 6.10067 25.2177 6.10062L25.2177 6.10077Z" fill="#0473E3" stroke="#0473E3"/>
</svg>
